   <svg 
 xmlns="http://www.w3.org/2000/svg"
 xmlns:xlink="http://www.w3.org/1999/xlink">
<defs>
<linearGradient id="PSgrad_0" x1="0%" x2="0%" y1="100%" y2="0%">
  <stop offset="0%" stop-color="rgb(233,90,0)" stop-opacity="1" />
  <stop offset="100%" stop-color="rgb(247,125,18)" stop-opacity="1" />
</linearGradient>

</defs>
<path fill-rule="evenodd"  fill="rgb(255, 100, 0)"
 d="M35.434,28.431 C35.347,28.460 35.140,28.473 35.053,28.473 C34.797,28.473 34.549,28.354 34.389,28.139 L29.796,21.985 L26.798,21.985 L26.798,22.568 C26.798,25.456 23.927,28.087 21.035,28.087 L6.096,28.087 L1.672,34.450 C1.514,34.678 1.258,34.806 0.991,34.806 C0.909,34.806 0.942,34.794 0.861,34.768 C0.515,34.659 0.397,34.338 0.397,33.974 L0.397,9.808 C0.397,6.899 2.258,4.787 5.149,4.787 L12.584,4.787 C12.865,2.337 15.113,0.349 17.773,0.349 L30.357,0.349 C33.404,0.349 36.120,2.602 36.120,5.370 L36.120,27.641 C36.120,28.000 35.773,28.318 35.434,28.431 ZM5.149,6.452 C3.158,6.452 2.057,7.801 2.057,9.808 L2.057,31.325 L5.100,26.779 C5.255,26.556 5.391,26.422 5.663,26.422 L21.035,26.422 C23.023,26.422 25.138,24.549 25.138,22.568 L25.138,9.808 C25.138,7.735 22.895,6.452 21.035,6.452 L5.149,6.452 ZM34.460,5.370 C34.459,3.297 32.216,2.014 30.357,2.014 L17.773,2.014 C16.018,2.014 14.521,3.241 14.246,4.787 L21.035,4.787 C24.083,4.787 26.798,7.040 26.798,9.808 L26.798,20.320 L30.212,20.320 C30.474,20.320 30.838,20.444 30.994,20.654 L34.460,25.139 L34.460,5.370 ZM16.494,17.621 C16.036,17.621 15.664,17.249 15.664,16.789 L15.664,15.125 C15.664,14.665 16.036,14.293 16.494,14.293 C16.952,14.293 17.324,14.665 17.324,15.125 L17.324,16.789 C17.324,17.249 16.952,17.621 16.494,17.621 ZM13.174,17.621 C12.716,17.621 12.344,17.249 12.344,16.789 L12.344,15.125 C12.344,14.665 12.716,14.293 13.174,14.293 C13.632,14.293 14.004,14.665 14.004,15.125 L14.004,16.789 C14.004,17.249 13.632,17.621 13.174,17.621 ZM9.854,17.621 C9.396,17.621 9.024,17.249 9.024,16.789 L9.024,15.125 C9.024,14.665 9.396,14.293 9.854,14.293 C10.312,14.293 10.684,14.665 10.684,15.125 L10.684,16.789 C10.684,17.249 10.312,17.621 9.854,17.621 Z"/>
<path fill="url(#PSgrad_0)"
 d="M35.434,28.431 C35.347,28.460 35.140,28.473 35.053,28.473 C34.797,28.473 34.549,28.354 34.389,28.139 L29.796,21.985 L26.798,21.985 L26.798,22.568 C26.798,25.456 23.927,28.087 21.035,28.087 L6.096,28.087 L1.672,34.450 C1.514,34.678 1.258,34.806 0.991,34.806 C0.909,34.806 0.942,34.794 0.861,34.768 C0.515,34.659 0.397,34.338 0.397,33.974 L0.397,9.808 C0.397,6.899 2.258,4.787 5.149,4.787 L12.584,4.787 C12.865,2.337 15.113,0.349 17.773,0.349 L30.357,0.349 C33.404,0.349 36.120,2.602 36.120,5.370 L36.120,27.641 C36.120,28.000 35.773,28.318 35.434,28.431 ZM5.149,6.452 C3.158,6.452 2.057,7.801 2.057,9.808 L2.057,31.325 L5.100,26.779 C5.255,26.556 5.391,26.422 5.663,26.422 L21.035,26.422 C23.023,26.422 25.138,24.549 25.138,22.568 L25.138,9.808 C25.138,7.735 22.895,6.452 21.035,6.452 L5.149,6.452 ZM34.460,5.370 C34.459,3.297 32.216,2.014 30.357,2.014 L17.773,2.014 C16.018,2.014 14.521,3.241 14.246,4.787 L21.035,4.787 C24.083,4.787 26.798,7.040 26.798,9.808 L26.798,20.320 L30.212,20.320 C30.474,20.320 30.838,20.444 30.994,20.654 L34.460,25.139 L34.460,5.370 ZM16.494,17.621 C16.036,17.621 15.664,17.249 15.664,16.789 L15.664,15.125 C15.664,14.665 16.036,14.293 16.494,14.293 C16.952,14.293 17.324,14.665 17.324,15.125 L17.324,16.789 C17.324,17.249 16.952,17.621 16.494,17.621 ZM13.174,17.621 C12.716,17.621 12.344,17.249 12.344,16.789 L12.344,15.125 C12.344,14.665 12.716,14.293 13.174,14.293 C13.632,14.293 14.004,14.665 14.004,15.125 L14.004,16.789 C14.004,17.249 13.632,17.621 13.174,17.621 ZM9.854,17.621 C9.396,17.621 9.024,17.249 9.024,16.789 L9.024,15.125 C9.024,14.665 9.396,14.293 9.854,14.293 C10.312,14.293 10.684,14.665 10.684,15.125 L10.684,16.789 C10.684,17.249 10.312,17.621 9.854,17.621 Z"/>
</svg>