<svg 
 xmlns="http://www.w3.org/2000/svg"
 xmlns:xlink="http://www.w3.org/1999/xlink">
<defs>
<linearGradient id="PSgrad_0" x1="0%" x2="0%" y1="100%" y2="0%">
  <stop offset="0%" stop-color="rgb(233,90,0)" stop-opacity="1" />
  <stop offset="100%" stop-color="rgb(247,125,18)" stop-opacity="1" />
</linearGradient>

</defs>
<path fill-rule="evenodd" stroke="rgb(255, 100, 0)"  fill="rgb(255, 100, 0)"
 d="M31.664,32.337 C28.516,35.479 24.329,37.210 19.877,37.210 C15.424,37.210 11.238,35.479 8.090,32.337 C4.941,29.195 3.207,25.018 3.207,20.575 C3.207,16.132 4.941,11.955 8.090,8.814 C11.238,5.671 15.424,3.941 19.877,3.941 C24.329,3.941 28.516,5.671 31.664,8.814 C34.813,11.955 36.547,16.132 36.547,20.575 C36.547,25.018 34.813,29.195 31.664,32.337 ZM30.928,9.549 C27.976,6.603 24.051,4.980 19.877,4.980 C15.702,4.980 11.778,6.603 8.826,9.549 C5.874,12.494 4.249,16.410 4.249,20.575 C4.249,24.741 5.874,28.656 8.826,31.602 C11.778,34.548 15.702,36.170 19.877,36.170 C24.051,36.170 27.976,34.548 30.928,31.602 C33.880,28.656 35.506,24.741 35.506,20.575 C35.506,16.410 33.880,12.494 30.928,9.549 ZM21.129,23.402 C20.815,23.402 20.615,23.386 20.583,23.383 L17.089,23.384 L17.089,25.745 L21.228,25.745 L21.228,26.926 L17.089,26.926 L17.089,30.466 L15.906,30.466 L15.906,26.926 L13.541,26.926 L13.541,25.745 L15.906,25.745 L15.906,23.384 L13.541,23.385 L13.541,22.205 L15.906,22.205 L15.906,11.584 L16.498,11.584 L17.089,11.584 L20.637,11.584 C20.720,11.573 23.950,11.304 26.039,13.209 C27.163,14.233 27.733,15.672 27.733,17.484 C27.733,19.297 27.163,20.736 26.039,21.759 C24.437,23.220 22.163,23.402 21.129,23.402 ZM25.241,14.080 C23.533,12.524 20.718,12.758 20.691,12.761 L17.089,12.763 L17.089,22.205 L20.637,22.205 C20.720,22.211 23.547,22.438 25.247,20.884 C26.112,20.093 26.551,18.949 26.550,17.484 C26.550,16.017 26.110,14.871 25.241,14.080 Z"/>
<path fill="url(#PSgrad_0)"
 d="M31.664,32.337 C28.516,35.479 24.329,37.210 19.877,37.210 C15.424,37.210 11.238,35.479 8.090,32.337 C4.941,29.195 3.207,25.018 3.207,20.575 C3.207,16.132 4.941,11.955 8.090,8.814 C11.238,5.671 15.424,3.941 19.877,3.941 C24.329,3.941 28.516,5.671 31.664,8.814 C34.813,11.955 36.547,16.132 36.547,20.575 C36.547,25.018 34.813,29.195 31.664,32.337 ZM30.928,9.549 C27.976,6.603 24.051,4.980 19.877,4.980 C15.702,4.980 11.778,6.603 8.826,9.549 C5.874,12.494 4.249,16.410 4.249,20.575 C4.249,24.741 5.874,28.656 8.826,31.602 C11.778,34.548 15.702,36.170 19.877,36.170 C24.051,36.170 27.976,34.548 30.928,31.602 C33.880,28.656 35.506,24.741 35.506,20.575 C35.506,16.410 33.880,12.494 30.928,9.549 ZM21.129,23.402 C20.815,23.402 20.615,23.386 20.583,23.383 L17.089,23.384 L17.089,25.745 L21.228,25.745 L21.228,26.926 L17.089,26.926 L17.089,30.466 L15.906,30.466 L15.906,26.926 L13.541,26.926 L13.541,25.745 L15.906,25.745 L15.906,23.384 L13.541,23.385 L13.541,22.205 L15.906,22.205 L15.906,11.584 L16.498,11.584 L17.089,11.584 L20.637,11.584 C20.720,11.573 23.950,11.304 26.039,13.209 C27.163,14.233 27.733,15.672 27.733,17.484 C27.733,19.297 27.163,20.736 26.039,21.759 C24.437,23.220 22.163,23.402 21.129,23.402 ZM25.241,14.080 C23.533,12.524 20.718,12.758 20.691,12.761 L17.089,12.763 L17.089,22.205 L20.637,22.205 C20.720,22.211 23.547,22.438 25.247,20.884 C26.112,20.093 26.551,18.949 26.550,17.484 C26.550,16.017 26.110,14.871 25.241,14.080 Z"/>
</svg>