<!-- Generator: Adobe Illustrator 23.0.3, SVG Export Plug-In  -->
<svg version="1.1" xmlns="http://www.w3.org/2000/svg" xmlns:xlink="http://www.w3.org/1999/xlink" x="0px" y="0px" width="32px"
	 height="32px" viewBox="0 0 32 32" style="enable-background:new 0 0 32 32;" xml:space="preserve">
<style type="text/css">
	.st0{fill:none;stroke:rgb(255, 100, 0);stroke-width:2;stroke-linecap:round;stroke-linejoin:round;stroke-miterlimit:10;}
</style>
<defs>
</defs>
<path class="st0" d="M31,19v-6h-3.39c-0.28-1.1-0.72-2.13-1.28-3.09l2.4-2.4l-4.24-4.24l-2.4,2.4C21.13,5.11,20.1,4.68,19,4.39V1h-6
	v3.39c-1.1,0.28-2.13,0.71-3.09,1.28l-2.4-2.4L3.27,7.52l2.4,2.4C5.11,10.87,4.68,11.9,4.39,13H1v6h3.39
	c0.28,1.1,0.72,2.13,1.28,3.09l-2.4,2.4l4.24,4.24l2.4-2.4c0.95,0.56,1.99,0.99,3.09,1.28V31h6v-3.39c1.1-0.28,2.13-0.71,3.09-1.28
	l2.4,2.4l4.24-4.24l-2.4-2.4c0.56-0.95,0.99-1.99,1.28-3.09H31z M16,22c-3.31,0-6-2.69-6-6s2.69-6,6-6c3.31,0,6,2.69,6,6
	S19.31,22,16,22z"/>
</svg>
