<svg 
    xmlns="http://www.w3.org/2000/svg"
    xmlns:xlink="http://www.w3.org/1999/xlink">
   <defs>
   <linearGradient id="PSgrad_0" x1="0%" x2="0%" y1="100%" y2="0%">
     <stop offset="0%" stop-color="rgb(233,90,0)" stop-opacity="1" />
     <stop offset="100%" stop-color="rgb(247,125,18)" stop-opacity="1" />
   </linearGradient>
   
   </defs>
   <path fill-rule="evenodd"  fill="rgb(255, 100, 0)"
    d="M39.863,26.025 L38.112,26.025 C37.553,28.856 35.022,31.000 31.992,31.000 C28.961,31.000 26.430,28.856 25.871,26.025 L15.902,26.025 C15.343,28.856 12.812,31.000 9.782,31.000 C6.751,31.000 4.220,28.856 3.661,26.025 L1.767,26.025 C1.107,26.025 0.572,25.497 0.572,24.846 C0.572,24.196 0.924,24.024 1.584,24.024 L3.609,24.024 C3.703,23.546 3.409,22.463 3.609,22.031 L1.584,22.031 C0.924,22.031 0.572,21.771 0.572,21.120 L0.572,1.286 C0.572,0.635 1.107,0.107 1.767,0.107 L25.658,0.107 C26.318,0.107 26.853,0.635 26.853,1.286 L26.853,7.118 L36.724,7.118 C37.189,7.118 37.612,7.385 37.808,7.802 L40.947,14.492 C41.019,14.647 41.057,14.816 41.057,14.987 L41.057,24.846 C41.057,25.497 40.523,26.025 39.863,26.025 ZM9.781,28.643 C11.903,28.643 13.629,26.939 13.629,24.846 C13.629,22.753 11.903,21.050 9.781,21.050 C7.660,21.050 5.933,22.753 5.933,24.846 C5.933,26.939 7.660,28.643 9.781,28.643 ZM24.863,2.100 L2.596,2.100 L2.596,20.038 L6.020,19.942 C7.066,19.158 8.370,18.693 9.781,18.693 C11.193,18.693 12.496,19.158 13.543,19.942 L24.863,20.038 L24.863,2.100 ZM25.875,22.031 L15.754,22.031 C15.954,22.463 15.660,23.546 15.754,24.024 L25.875,24.024 C25.994,23.426 26.195,22.501 26.476,21.978 C26.262,22.176 26.192,22.031 25.875,22.031 ZM31.991,28.643 C34.113,28.643 35.839,26.939 35.839,24.846 C35.839,22.753 34.113,21.050 31.991,21.050 C29.870,21.050 28.143,22.753 28.143,24.846 C28.143,26.939 29.870,28.643 31.991,28.643 ZM39.033,15.055 L35.997,9.076 L26.888,9.076 L26.853,21.120 C26.853,21.225 26.838,21.326 26.812,21.423 C27.932,19.777 29.836,18.692 31.991,18.692 C35.022,18.692 37.552,20.836 38.111,23.668 L39.033,24.024 L39.033,15.055 ZM35.764,16.189 C35.763,16.189 35.762,16.189 35.761,16.189 L29.163,16.189 C28.503,16.189 27.969,15.661 27.969,15.011 L27.969,11.734 C27.969,11.083 28.503,10.556 29.163,10.556 L34.185,10.556 C34.647,10.556 35.067,10.818 35.265,11.229 L36.804,14.430 C36.902,14.602 36.958,14.800 36.958,15.011 C36.958,15.661 36.424,16.189 35.764,16.189 ZM33.430,12.913 L30.357,12.913 L30.357,13.832 L33.872,13.832 L33.430,12.913 Z"/>
   <path fill="url(#PSgrad_0)"
    d="M39.863,26.025 L38.112,26.025 C37.553,28.856 35.022,31.000 31.992,31.000 C28.961,31.000 26.430,28.856 25.871,26.025 L15.902,26.025 C15.343,28.856 12.812,31.000 9.782,31.000 C6.751,31.000 4.220,28.856 3.661,26.025 L1.767,26.025 C1.107,26.025 0.572,25.497 0.572,24.846 C0.572,24.196 0.924,24.024 1.584,24.024 L3.609,24.024 C3.703,23.546 3.409,22.463 3.609,22.031 L1.584,22.031 C0.924,22.031 0.572,21.771 0.572,21.120 L0.572,1.286 C0.572,0.635 1.107,0.107 1.767,0.107 L25.658,0.107 C26.318,0.107 26.853,0.635 26.853,1.286 L26.853,7.118 L36.724,7.118 C37.189,7.118 37.612,7.385 37.808,7.802 L40.947,14.492 C41.019,14.647 41.057,14.816 41.057,14.987 L41.057,24.846 C41.057,25.497 40.523,26.025 39.863,26.025 ZM9.781,28.643 C11.903,28.643 13.629,26.939 13.629,24.846 C13.629,22.753 11.903,21.050 9.781,21.050 C7.660,21.050 5.933,22.753 5.933,24.846 C5.933,26.939 7.660,28.643 9.781,28.643 ZM24.863,2.100 L2.596,2.100 L2.596,20.038 L6.020,19.942 C7.066,19.158 8.370,18.693 9.781,18.693 C11.193,18.693 12.496,19.158 13.543,19.942 L24.863,20.038 L24.863,2.100 ZM25.875,22.031 L15.754,22.031 C15.954,22.463 15.660,23.546 15.754,24.024 L25.875,24.024 C25.994,23.426 26.195,22.501 26.476,21.978 C26.262,22.176 26.192,22.031 25.875,22.031 ZM31.991,28.643 C34.113,28.643 35.839,26.939 35.839,24.846 C35.839,22.753 34.113,21.050 31.991,21.050 C29.870,21.050 28.143,22.753 28.143,24.846 C28.143,26.939 29.870,28.643 31.991,28.643 ZM39.033,15.055 L35.997,9.076 L26.888,9.076 L26.853,21.120 C26.853,21.225 26.838,21.326 26.812,21.423 C27.932,19.777 29.836,18.692 31.991,18.692 C35.022,18.692 37.552,20.836 38.111,23.668 L39.033,24.024 L39.033,15.055 ZM35.764,16.189 C35.763,16.189 35.762,16.189 35.761,16.189 L29.163,16.189 C28.503,16.189 27.969,15.661 27.969,15.011 L27.969,11.734 C27.969,11.083 28.503,10.556 29.163,10.556 L34.185,10.556 C34.647,10.556 35.067,10.818 35.265,11.229 L36.804,14.430 C36.902,14.602 36.958,14.800 36.958,15.011 C36.958,15.661 36.424,16.189 35.764,16.189 ZM33.430,12.913 L30.357,12.913 L30.357,13.832 L33.872,13.832 L33.430,12.913 Z"/>
   <path fill-rule="evenodd"  fill="rgb(255, 255, 255)"
    d="M9.681,21.035 C11.917,21.035 13.730,22.819 13.730,25.021 C13.730,27.222 11.917,29.007 9.681,29.007 C7.445,29.007 5.633,27.222 5.633,25.021 C5.633,22.819 7.445,21.035 9.681,21.035 Z"/>
   <path fill-rule="evenodd"  fill="rgb(255, 255, 255)"
    d="M31.948,21.035 C34.184,21.035 35.997,22.819 35.997,25.021 C35.997,27.222 34.184,29.007 31.948,29.007 C29.712,29.007 27.900,27.222 27.900,25.021 C27.900,22.819 29.712,21.035 31.948,21.035 Z"/>
   </svg>