<!-- Generator: Adobe Illustrator 23.0.3, SVG Export Plug-In  -->
<svg version="1.1" xmlns="http://www.w3.org/2000/svg" xmlns:xlink="http://www.w3.org/1999/xlink" x="0px" y="0px" width="65.83px"
	 height="63.92px" viewBox="0 0 65.83 63.92" style="enable-background:new 0 0 65.83 63.92;" xml:space="preserve">
<style type="text/css">
	.st0{fill:none;stroke:rgb(255, 100, 0);stroke-width:2.8347;stroke-linecap:round;stroke-linejoin:round;stroke-miterlimit:10;}
	.st1{fill:none;stroke:rgb(255, 100, 0);stroke-width:2.8347;stroke-miterlimit:10;}
</style>
<defs>
</defs>
<polyline class="st0" points="20.42,62.5 64.42,62.5 60.42,10.5 18.42,10.5 "/>
<polyline class="st0" points="16.85,28.08 18.42,10.5 60.42,10.5 56.42,62.5 14.42,62.5 "/>
<polyline class="st0" points="8.58,62.5 30.58,62.5 28.58,28.5 7.58,28.5 "/>
<polygon class="st0" points="26.42,62.5 1.42,62.5 3.42,28.5 28.42,28.5 "/>
<path class="st1" d="M10.08,34.75v2c0,2.76,2.24,5,5,5c2.76,0,5-2.24,5-5l-0.01-2"/>
<path class="st0" d="M47.42,19.42l0-9c0-4.97-4.03-9-9-9s-9,4.03-9,9v9"/>
<line class="st1" x1="26.42" y1="20.42" x2="32.42" y2="20.42"/>
<line class="st1" x1="44.42" y1="20.42" x2="50.42" y2="20.42"/>
</svg>
