<!-- Generator: Adobe Illustrator 23.0.3, SVG Export Plug-In  -->
<svg version="1.1" xmlns="http://www.w3.org/2000/svg" xmlns:xlink="http://www.w3.org/1999/xlink" x="0px" y="0px" width="49.24px"
	 height="50.93px" viewBox="0 0 49.24 50.93" style="enable-background:new 0 0 49.24 50.93;" xml:space="preserve">
<style type="text/css">
	.st0{fill:#1A1A1A;}
</style>
<defs>
</defs>
<path class="st0" d="M36.94,13.07l-2.05-2.26l0.94-1.75c0.13-0.23,0.15-0.51,0.07-0.76c-0.08-0.25-0.26-0.46-0.5-0.58L23.61,1.95
	c-0.47-0.23-1.04-0.05-1.29,0.42l-0.45,0.85l-9.48-3.13c-0.9-0.27-1.86,0.12-2.3,0.94L0.23,19.37c-0.44,0.82-0.24,1.85,0.49,2.44
	l7.84,6.18l-1.08,2c-0.25,0.46-0.09,1.04,0.37,1.31l9.86,5.78l1.37-2.59v-14.4c0-1.39,0.88-3.46,3.27-3.46c0.09,0,0.19,0,0.29,0.01
	c2.13,0.16,2.86,2.07,2.83,3.29l-0.04,8.51l0.11-0.21l-0.03,6.68c1.08,0.02,2.1-0.57,2.63-1.54l9.22-16.94
	C37.95,15.34,37.78,13.99,36.94,13.07z M17.94,40.72l5.92-0.01l0.09-20.79c0,0,0.04-1.7-1.47-1.81c-0.06,0-0.13-0.01-0.18-0.01
	c-1.8,0-1.25,1.99-1.25,1.99v14.76L17.94,40.72z M0.64,50.39l2.99-0.12l2.99-2.76h20.31v-4.72H4.49L0.64,50.39z M33.95,40.17
	c-2.97,0-5.38,2.42-5.38,5.38c0,2.97,2.42,5.38,5.38,5.38c2.97,0,5.38-2.41,5.38-5.38C39.33,42.59,36.92,40.17,33.95,40.17z
	 M48.98,19.43c0,0-3.27,0.78-5.52,1.63c-1.84,0.7-2.49,2.18-2.49,2.18l-6.11,15.07l3.34,1.17c0,0,4.56-12.5,5.33-14.6
	c0.78-2.1,2.02-2.02,4.28-2.8C50.07,21.3,48.98,19.43,48.98,19.43z"/>
</svg>
