<!-- Generator: Adobe Illustrator 23.0.3, SVG Export Plug-In  -->
<svg version="1.1" xmlns="http://www.w3.org/2000/svg" xmlns:xlink="http://www.w3.org/1999/xlink" x="0px" y="0px" width="21.03px"
	 height="17px" viewBox="0 0 21.03 17" style="enable-background:new 0 0 21.03 17;" xml:space="preserve">
<style type="text/css">
	.st0{fill:none;}
	.st1{fill:#1A1A1A;}
</style>
<defs>
</defs>
<path class="st0" d="M7.7,14.89c-0.17,0-0.31,0.14-0.31,0.3c0,0.17,0.14,0.31,0.31,0.31c0.17,0,0.3-0.14,0.3-0.31
	C8.01,15.03,7.87,14.89,7.7,14.89z"/>
<path class="st0" d="M14.04,7.86c0.19,0,0.35-0.16,0.35-0.35c0-0.19-0.16-0.35-0.35-0.35c-0.19,0-0.35,0.16-0.35,0.35
	C13.69,7.7,13.84,7.86,14.04,7.86z"/>
<path class="st0" d="M10.89,13.74c-0.29,0-0.52,0.23-0.52,0.52s0.23,0.52,0.52,0.52c0.28,0,0.52-0.23,0.52-0.52
	S11.18,13.74,10.89,13.74z"/>
<path class="st0" d="M13.79,11.7c0.23,0,0.41-0.18,0.41-0.41c0-0.23-0.18-0.41-0.41-0.41c-0.23,0-0.41,0.18-0.41,0.41
	C13.38,11.52,13.56,11.7,13.79,11.7z"/>
<path class="st0" d="M8.6,12.85c-0.17,0-0.3,0.14-0.3,0.3c0,0.17,0.14,0.3,0.3,0.3c0.17,0,0.3-0.14,0.3-0.3
	C8.9,12.99,8.76,12.85,8.6,12.85z"/>
<path class="st0" d="M11.62,9.24c-0.19,0-0.35,0.16-0.35,0.35c0,0.19,0.16,0.35,0.35,0.35c0.19,0,0.35-0.16,0.35-0.35
	C11.97,9.4,11.82,9.24,11.62,9.24z"/>
<path class="st0" d="M15.89,10.98c0,0.29,0.23,0.52,0.52,0.52c0.28,0,0.52-0.23,0.52-0.52c0-0.29-0.23-0.52-0.52-0.52
	C16.12,10.46,15.89,10.69,15.89,10.98z"/>
<path class="st0" d="M12.68,12.66c-0.23,0-0.42,0.19-0.42,0.42c0,0.23,0.19,0.42,0.42,0.42c0.23,0,0.42-0.19,0.42-0.42
	C13.1,12.85,12.91,12.66,12.68,12.66z"/>
<path class="st0" d="M17.8,13.86c0.43,0,0.79-0.35,0.79-0.79c0-0.44-0.35-0.79-0.79-0.79c-0.43,0-0.79,0.35-0.79,0.79
	C17.02,13.51,17.37,13.86,17.8,13.86z"/>
<path class="st0" d="M15.49,12.69c-0.29,0-0.52,0.23-0.52,0.52c0,0.29,0.23,0.52,0.52,0.52c0.29,0,0.52-0.23,0.52-0.52
	C16.01,12.92,15.78,12.69,15.49,12.69z"/>
<path class="st0" d="M13.98,14.19c-0.43,0-0.79,0.35-0.79,0.79c0,0.43,0.35,0.79,0.79,0.79c0.43,0,0.79-0.35,0.79-0.79
	C14.76,14.54,14.41,14.19,13.98,14.19z"/>
<path class="st0" d="M15.26,9.24c0-0.2-0.16-0.35-0.35-0.35c-0.19,0-0.35,0.16-0.35,0.35c0,0.19,0.16,0.35,0.35,0.35
	C15.1,9.59,15.26,9.44,15.26,9.24z"/>
<path class="st0" d="M10.82,11.94c0-0.22-0.18-0.4-0.4-0.4c-0.22,0-0.4,0.18-0.4,0.4c0,0.22,0.18,0.4,0.4,0.4
	C10.65,12.34,10.82,12.16,10.82,11.94z"/>
<path class="st1" d="M9.79,2.28L9.79,2.28c-0.01,0-0.02,0-0.03,0c-0.01,0-0.02,0-0.03,0v0c-2.44,0.05-4.98,3.19-6.6,5.2
	c-1.49,1.86-3.98,4.98-2.84,6.9c0.94,1.57,5.11,2.6,9.44,2.62v0c0.01,0,0.02,0,0.03,0c0.01,0,0.02,0,0.03,0v0
	c4.33-0.02,8.5-1.05,9.44-2.62c1.15-1.92-1.35-5.04-2.84-6.9C14.77,5.46,12.23,2.32,9.79,2.28z M7.7,15.5
	c-0.17,0-0.31-0.14-0.31-0.31c0-0.17,0.14-0.3,0.31-0.3c0.17,0,0.3,0.14,0.3,0.3C8.01,15.37,7.87,15.5,7.7,15.5z M8.6,13.46
	c-0.17,0-0.3-0.14-0.3-0.3c0-0.17,0.14-0.3,0.3-0.3c0.17,0,0.3,0.14,0.3,0.3C8.9,13.33,8.76,13.46,8.6,13.46z M14.04,7.15
	c0.19,0,0.35,0.16,0.35,0.35c0,0.19-0.16,0.35-0.35,0.35c-0.19,0-0.35-0.16-0.35-0.35C13.69,7.31,13.84,7.15,14.04,7.15z
	 M13.79,10.88c0.23,0,0.41,0.18,0.41,0.41c0,0.23-0.18,0.41-0.41,0.41c-0.23,0-0.41-0.18-0.41-0.41
	C13.38,11.07,13.56,10.88,13.79,10.88z M10.03,11.94c0-0.22,0.18-0.4,0.4-0.4c0.22,0,0.4,0.18,0.4,0.4c0,0.22-0.18,0.4-0.4,0.4
	C10.2,12.34,10.03,12.16,10.03,11.94z M10.89,14.78c-0.29,0-0.52-0.23-0.52-0.52s0.23-0.52,0.52-0.52c0.28,0,0.52,0.23,0.52,0.52
	S11.18,14.78,10.89,14.78z M11.62,9.94c-0.19,0-0.35-0.16-0.35-0.35c0-0.19,0.16-0.35,0.35-0.35c0.19,0,0.35,0.16,0.35,0.35
	C11.97,9.79,11.82,9.94,11.62,9.94z M12.68,13.51c-0.23,0-0.42-0.19-0.42-0.42c0-0.23,0.19-0.42,0.42-0.42
	c0.23,0,0.42,0.19,0.42,0.42C13.1,13.32,12.91,13.51,12.68,13.51z M13.98,15.76c-0.43,0-0.79-0.35-0.79-0.79
	c0-0.43,0.35-0.79,0.79-0.79c0.43,0,0.79,0.35,0.79,0.79C14.76,15.41,14.41,15.76,13.98,15.76z M14.55,9.24
	c0-0.2,0.16-0.35,0.35-0.35c0.19,0,0.35,0.16,0.35,0.35c0,0.19-0.16,0.35-0.35,0.35C14.71,9.59,14.55,9.44,14.55,9.24z M15.49,13.72
	c-0.29,0-0.52-0.23-0.52-0.52c0-0.29,0.23-0.52,0.52-0.52c0.29,0,0.52,0.23,0.52,0.52C16.01,13.49,15.78,13.72,15.49,13.72z
	 M17.8,12.29c0.43,0,0.79,0.35,0.79,0.79c0,0.43-0.35,0.79-0.79,0.79c-0.43,0-0.79-0.35-0.79-0.79
	C17.02,12.64,17.37,12.29,17.8,12.29z M16.92,10.98c0,0.29-0.23,0.52-0.52,0.52c-0.29,0-0.52-0.23-0.52-0.52
	c0-0.29,0.23-0.52,0.52-0.52C16.69,10.46,16.92,10.69,16.92,10.98z"/>
<circle class="st1" cx="19.83" cy="7.48" r="1.2"/>
<path class="st1" d="M18.85,5.3c0.54,0,0.99-0.44,0.99-0.98c0-0.55-0.44-0.99-0.99-0.99c-0.54,0-0.99,0.44-0.99,0.99
	C17.86,4.86,18.3,5.3,18.85,5.3z"/>
<path class="st1" d="M15.8,3.94c0.45,0,0.82-0.37,0.82-0.82c0-0.45-0.37-0.82-0.82-0.82s-0.82,0.37-0.82,0.82
	C14.97,3.57,15.34,3.94,15.8,3.94z"/>
<path class="st1" d="M14.67,0c-0.35,0-0.63,0.28-0.63,0.63c0,0.35,0.28,0.63,0.63,0.63s0.63-0.28,0.63-0.63
	C15.3,0.28,15.02,0,14.67,0z"/>
</svg>
