<!-- Generator: Adobe Illustrator 23.0.3, SVG Export Plug-In  -->
<svg version="1.1" xmlns="http://www.w3.org/2000/svg" xmlns:xlink="http://www.w3.org/1999/xlink" x="0px" y="0px" width="28.67px"
	 height="28.67px" viewBox="0 0 28.67 28.67" style="enable-background:new 0 0 28.67 28.67;" xml:space="preserve">
<style type="text/css">
	.st0{fill:#1A1A1A;}
</style>
<defs>
</defs>
<g>
	<path class="st0" d="M21.42,23.53c-0.07,0.09-0.15,0.18-0.25,0.25l-7.39,4.86c0.19,0.01,0.37,0.03,0.56,0.03
		c3.14,0,6.04-1.02,8.41-2.74c-0.08-0.08-0.14-0.17-0.19-0.27L21.42,23.53z"/>
	<path class="st0" d="M17.5,11.09l7.05,13.3c0.46-0.47,0.88-0.97,1.27-1.5l-6.79-12.8L17.5,11.09z"/>
	<path class="st0" d="M20.41,21.63l-0.9-1.7c-0.07,0.09-0.15,0.18-0.25,0.24L8.35,27.34c0.63,0.29,1.29,0.54,1.97,0.74l9.55-6.28
		C20.03,21.69,20.22,21.65,20.41,21.63z"/>
	<path class="st0" d="M21.01,8.77l6.23,11.75c0.32-0.67,0.6-1.36,0.82-2.08L22.44,7.84L21.01,8.77z"/>
	<path class="st0" d="M18.5,18.02l-0.95-1.79c-0.05,0.05-0.09,0.11-0.15,0.15L4.58,24.81c0.47,0.44,0.96,0.84,1.48,1.21l11.91-7.83
		C18.13,18.08,18.31,18.04,18.5,18.02z"/>
	<path class="st0" d="M12.38,14.4l0.76,1.52c0.06,0.12,0.08,0.25,0.1,0.37l2.86-1.88c0.12-0.08,0.26-0.13,0.4-0.16l-0.98-1.85
		l-2.84,1.87C12.58,14.32,12.49,14.36,12.38,14.4z"/>
	<path class="st0" d="M9.8,18.55l1.67-1.1c-0.19-0.11-0.34-0.28-0.45-0.48L4.52,3.91C4.08,4.32,3.66,4.75,3.28,5.21l6.4,12.86
		C9.76,18.23,9.79,18.39,9.8,18.55z"/>
	<path class="st0" d="M4.58,21.99c-0.22-0.11-0.41-0.28-0.53-0.52l-4-8.04C0.03,13.73,0,14.03,0,14.33c0,3.3,1.13,6.33,3,8.75
		c0.06-0.06,0.11-0.13,0.19-0.18L4.58,21.99z"/>
	<path class="st0" d="M14.99,0.03C14.77,0.02,14.56,0,14.33,0C11.4,0,8.68,0.88,6.41,2.39l1.23,2.47L14.99,0.03z"/>
	<path class="st0" d="M10.57,10.75l0.78,1.57c0.01-0.01,0.02-0.02,0.03-0.03L24.13,3.9c-0.43-0.41-0.89-0.78-1.37-1.13l-11.99,7.89
		C10.71,10.69,10.64,10.72,10.57,10.75z"/>
	<path class="st0" d="M8.68,6.97l0.84,1.68l10.99-7.23c-0.67-0.32-1.36-0.6-2.09-0.82L8.91,6.86C8.84,6.91,8.76,6.94,8.68,6.97z"/>
	<path class="st0" d="M24.42,6.53l4.23,7.99c0-0.06,0.01-0.13,0.01-0.19c0-3.27-1.11-6.28-2.95-8.69c-0.04,0.04-0.07,0.09-0.12,0.12
		L24.42,6.53z"/>
	<path class="st0" d="M6.28,20.86l1.83-1.2c-0.23-0.11-0.43-0.28-0.55-0.53L1.76,7.46C1.38,8.15,1.06,8.89,0.8,9.64l5.36,10.77
		C6.23,20.56,6.27,20.71,6.28,20.86z"/>
</g>
</svg>
