<!-- Generator: Adobe Illustrator 23.0.3, SVG Export Plug-In  -->
<svg version="1.1" xmlns="http://www.w3.org/2000/svg" xmlns:xlink="http://www.w3.org/1999/xlink" x="0px" y="0px" width="29.09px"
	 height="24.58px" viewBox="0 0 29.09 24.58" style="enable-background:new 0 0 29.09 24.58;" xml:space="preserve">
<style type="text/css">
	.st0{fill:#1A1A1A;}
</style>
<defs>
</defs>
<path class="st0" d="M23.36,0.93c-2.34,0.36-2.91,0.62-3.37,1.27c-0.04,0.07-0.11,0.12-0.14,0.21C19.54,3.55,23.2,6,25.58,8.27
	c2.38,2.27,3.77-2.64,3.47-3.91C28.42,2.16,25.92,0.54,23.36,0.93z"/>
<path class="st0" d="M4.13,15.91c3.85-0.43,7.82-6.43,8.49-7.62c1.31-2.32,2.13-5.71,0.76-7.33c-1.12-1.32-3.21-1.35-5.13,0.28
	C6.32,2.88,3.28,4.87,3.28,4.87S0,7.49,0,10.45C0,14.73,0.28,16.35,4.13,15.91z"/>
<path class="st0" d="M20.55,6.93c-1.32-0.96-3.85-1.87-4.92,1.81c-1,3.46-1.75,4.89,0.45,7.16c2.2,2.26,1.54,5.06,5.06,6.92
	c1.87,0.98,5.26-1.4,6.06-6.91C27.22,15.92,28.26,12.55,20.55,6.93z"/>
<path class="st0" d="M7.31,17.39c-2.79,2.39-3.33,3.19-3.4,4.43C3.9,21.94,3.86,22.07,3.9,22.2c0.53,1.75,3.68,1.23,8.67,2.28
	c4.99,1.05,2.81-6.57,1.38-7.99C11.31,14.1,10.37,14.76,7.31,17.39z"/>
</svg>
