<!-- Generator: Adobe Illustrator 23.0.3, SVG Export Plug-In  -->
<svg version="1.1" xmlns="http://www.w3.org/2000/svg" xmlns:xlink="http://www.w3.org/1999/xlink" x="0px" y="0px" width="21.63px"
	 height="23.66px" viewBox="0 0 21.63 23.66" style="enable-background:new 0 0 21.63 23.66;" xml:space="preserve">
<style type="text/css">
	.st0{fill:#1A1A1A;}
</style>
<defs>
</defs>
<g>
	<path class="st0" d="M21.49,1.3c0,0-0.06-0.19-0.12-0.27c-0.04-0.09-0.17-0.24-0.17-0.24c-1.47-1.79-3.73-0.09-4.9,0.93
		c-1.26,1.09-3.62,2.46-3.62,2.46s-1.52,0.71-2.19-0.31C9.81,2.85,9.34,2,8.68,2.28c-0.66,0.28-1.35,0.6-1.35,0.6l5.13,9.13
		c0,0,0.65-0.38,1.23-0.8c0.58-0.42,0.11-1.26-0.41-2.37c-0.52-1.1,0.88-2.03,0.88-2.03s2.4-1.3,3.99-1.81
		C19.62,4.53,22.25,3.49,21.49,1.3z"/>
</g>
<g>
	<polygon class="st0" points="12.04,12.24 10.35,9.23 8.62,6.16 6.91,3.11 0,7.71 4.38,15.79 	"/>
</g>
<g>
	<path class="st0" d="M4.43,16c0,0,0-0.01-0.01-0.02v0.03C4,17.62,2.9,18.73,2.42,20.08c-0.05,0.14-0.08,0.29-0.11,0.43
		c-0.03,0.14-0.06,0.29-0.08,0.44c-0.02,0.15-0.03,0.3-0.03,0.45c0,0.15,0.01,0.3,0.04,0.45c0.02,0.15,0.06,0.3,0.11,0.44
		c0.05,0.14,0.1,0.28,0.18,0.41c0.87,1.32,2.89,1.22,3.77,0.08c0.09-0.12,0.15-0.26,0.2-0.4c0.05-0.14,0.09-0.29,0.12-0.43
		c0.03-0.15,0.05-0.29,0.05-0.44c0.01-0.15,0.01-0.3-0.01-0.44c-0.01-0.15-0.04-0.3-0.07-0.44c-0.03-0.15-0.07-0.29-0.11-0.44
		c-0.01-0.03-0.02-0.07-0.03-0.1c-0.48-1.35-1.58-2.45-2.01-4.06v-0.03C4.43,15.99,4.43,15.99,4.43,16z"/>
</g>
</svg>
