<!-- Generator: Adobe Illustrator 23.0.3, SVG Export Plug-In  -->
<svg version="1.1" xmlns="http://www.w3.org/2000/svg" xmlns:xlink="http://www.w3.org/1999/xlink" x="0px" y="0px" width="41.48px"
	 height="25.76px" viewBox="0 0 41.48 25.76" style="enable-background:new 0 0 41.48 25.76;" xml:space="preserve">
<style type="text/css">
	.st0{fill:none;}
	.st1{fill:#1A1A1A;}
</style>
<defs>
</defs>
<path class="st0" d="M29.13,10.1c0.14,0.25,0.51,0.16,0.51,0.16s7.78-2.88,10.1-5.59c0.06-0.37-0.52-1.08-0.52-1.08
	S36.73,6.61,29.13,10.1z"/>
<path class="st1" d="M25.42,8.08l2.39,4.15c0,0,10.26-3.52,13.68-7.77C39.81,1.33,38.98,0,38.98,0S30.19,2.59,25.42,8.08z
	 M39.74,4.67c-2.32,2.71-10.1,5.59-10.1,5.59s-0.36,0.09-0.51-0.16c7.59-3.5,10.09-6.51,10.09-6.51S39.8,4.3,39.74,4.67z"/>
<path class="st1" d="M19.97,15.37c-0.15,0.08-0.3,0.16-0.47,0.1c-0.16-0.05-0.3-0.16-0.38-0.31c0,0,0-0.01-0.01-0.01l-0.73-1.35
	c-0.16-0.3-0.06-0.68,0.23-0.87l5.06-3.11c-2.86-4.35-7.18-5.21-7.38-5.25c-0.24-0.05-0.48,0.04-0.64,0.23l-2.83,3.45l0-0.14
	l-2.21,2.81v0.02l-0.3,0.36L0.17,24.22L0,24.09c0,0.12,0.02,0.23,0.08,0.34l0.56,1c0.14,0.24,0.4,0.37,0.67,0.33
	c0.1-0.02,9.71-1.54,24.13-3.88c0.29-0.05,0.52-0.28,0.55-0.57c0.37-3.37,0.16-6.09-0.81-8.62L19.97,15.37z"/>
<polygon class="st1" points="19.23,13.59 19.73,14.48 25.92,11.25 25.19,9.95 "/>
</svg>
