<!-- Generator: Adobe Illustrator 23.0.3, SVG Export Plug-In  -->
<svg version="1.1" xmlns="http://www.w3.org/2000/svg" xmlns:xlink="http://www.w3.org/1999/xlink" x="0px" y="0px" width="36.82px"
	 height="39.23px" viewBox="0 0 36.82 39.23" style="enable-background:new 0 0 36.82 39.23;" xml:space="preserve">
<style type="text/css">
	.st0{fill:#1A1A1A;}
</style>
<defs>
</defs>
<g>
	<g>
		<path class="st0" d="M7.36,24.18l7.55,4.43l1.05-1.99V15.59c0-1.06,0.67-2.65,2.5-2.65c0.07,0,0.15,0,0.22,0.01
			c1.63,0.12,2.19,1.58,2.17,2.52l-0.03,6.52L28.8,7.14c0.1-0.18,0.12-0.39,0.05-0.59c-0.06-0.19-0.2-0.35-0.38-0.44l-9.04-4.42
			c-0.36-0.18-0.8-0.04-0.99,0.32L7.07,23.18C6.88,23.54,7.01,23.98,7.36,24.18z"/>
	</g>
	<g>
		<path class="st0" d="M6.64,21.52L16.86,2.5L9.49,0.07C8.8-0.14,8.06,0.16,7.72,0.79L0.18,14.85c-0.34,0.63-0.18,1.41,0.37,1.87
			L6.64,21.52z"/>
	</g>
	<g>
		<path class="st0" d="M20.8,29.73c0.83,0.01,1.61-0.43,2.01-1.18l8.83-16.45c0.45-0.84,0.32-1.87-0.32-2.58l-1.61-1.77l-8.9,16.58
			L20.8,29.73z"/>
	</g>
	<g>
		<path class="st0" d="M18.61,14.07c-0.05,0-0.1,0-0.14,0c-1.38,0-1.38,1.53-1.38,1.53V26.9l-2.38,4.5l4.96-0.01l0.07-15.93
			C19.73,15.46,19.77,14.15,18.61,14.07z"/>
	</g>
	<g>
		<polygon class="st0" points="1.83,38.81 4.12,38.72 6.41,36.6 21.98,36.6 21.98,32.99 4.78,32.99 		"/>
	</g>
	<g>
		<path class="st0" d="M31.48,35.1c0-2.27-1.85-4.12-4.12-4.12c-2.27,0-4.13,1.85-4.13,4.12c0,2.28,1.85,4.13,4.13,4.13
			C29.64,39.23,31.48,37.38,31.48,35.1z"/>
	</g>
	<g>
		<path class="st0" d="M30.18,30.39c0,0,2.96-8.25,3.4-9.44c0.44-1.19,1.15-1.15,2.42-1.58c1.28-0.44,0.66-1.5,0.66-1.5
			s-1.85,0.44-3.13,0.93c-1.04,0.4-1.41,1.23-1.41,1.23l-3.84,9.7L30.18,30.39z"/>
	</g>
</g>
</svg>
