<!-- Generator: Adobe Illustrator 23.0.3, SVG Export Plug-In  -->
<svg version="1.1" xmlns="http://www.w3.org/2000/svg" xmlns:xlink="http://www.w3.org/1999/xlink" x="0px" y="0px" width="33.93px"
	 height="45.95px" viewBox="0 0 33.93 45.95" style="enable-background:new 0 0 33.93 45.95;" xml:space="preserve">
<style type="text/css">
	.st0{fill:#1A1A1A;}
</style>
<defs>
</defs>
<g>
	<g>
		<path class="st0" d="M22.24,20.76C19.52,14.04,14.1,8.31,11.96,0.17V0c-0.01,0.03-0.02,0.06-0.02,0.09
			C11.93,0.06,11.92,0.03,11.91,0v0.17C9.65,8.76,3.75,14.66,1.2,21.87c-0.26,0.74-0.43,1.55-0.61,2.32
			c-0.18,0.77-0.34,1.55-0.44,2.34C0.05,27.31-0.01,28.11,0,28.9c0.01,0.8,0.07,1.6,0.19,2.4c0.12,0.8,0.31,1.59,0.56,2.35
			c0.25,0.76,0.55,1.51,0.99,2.18c2.21,3.38,5.84,4.99,9.53,5.11c2.31,3.03,5.94,5,10.04,5c6.96,0,12.62-5.66,12.62-12.62
			C33.93,26.69,28.77,21.24,22.24,20.76z M21.31,43.95c-5.86,0-10.62-4.76-10.62-10.62s4.76-10.62,10.62-10.62
			c5.85,0,10.62,4.76,10.62,10.62S27.17,43.95,21.31,43.95z"/>
	</g>
	<g>
		<polygon class="st0" points="23.88,27.83 19.12,27.83 19.12,30.8 16.15,30.8 16.15,35.55 19.12,35.55 19.12,38.53 23.88,38.53 
			23.88,35.55 26.85,35.55 26.85,30.8 23.88,30.8 		"/>
	</g>
</g>
</svg>
