<!-- Generator: Adobe Illustrator 23.0.3, SVG Export Plug-In  -->
<svg version="1.1" xmlns="http://www.w3.org/2000/svg" xmlns:xlink="http://www.w3.org/1999/xlink" x="0px" y="0px" width="51.53px"
	 height="50.23px" viewBox="0 0 51.53 50.23" style="enable-background:new 0 0 51.53 50.23;" xml:space="preserve">
<style type="text/css">
	.st0{fill:#1A1A1A;}
</style>
<defs>
</defs>
<g>
	<g>
		<path class="st0" d="M0.19,35.23c-0.01,0.04-0.03,0.07-0.03,0.11l-0.14,5.63l0,0.13L0,42.11c-0.01,0.4,0.25,0.76,0.64,0.88
			l24.19,7.21c0.08,0.03,0.17,0.04,0.25,0.04c0.05,0,0.09-0.02,0.13-0.02c0.05,0.01,0.09,0.02,0.13,0.02c0.09,0,0.17-0.01,0.25-0.04
			l24.19-7.21c0.38-0.11,0.65-0.47,0.64-0.88l-0.16-6.78c0-0.16-0.06-0.3-0.14-0.44l-25.46,7.2L0.19,35.23z"/>
	</g>
	<g>
		<path class="st0" d="M36.58,8.25l0.06-0.04c-2.4-3.64-6.01-4.36-6.17-4.39c-0.2-0.04-0.4,0.03-0.53,0.19L16.97,19.8
			c-0.14,0.17-0.17,0.42-0.05,0.61l0.47,0.83c0.11,0.2,0.34,0.31,0.56,0.27c0.08-0.01,8.11-1.29,20.16-3.25
			c0.24-0.04,0.43-0.24,0.46-0.48c0.3-2.82,0.14-5.09-0.68-7.2l-4.34,2.25c-0.13,0.07-0.25,0.13-0.39,0.09
			c-0.14-0.04-0.25-0.13-0.32-0.26c0,0,0-0.01-0.01-0.01l-0.61-1.13c-0.13-0.26-0.05-0.57,0.2-0.72l3.8-2.33
			c0.13,0.15,0.38,0.1,0.38,0.1s0.87-0.32,2.07-0.84l-0.23-0.4C37.86,7.63,37.24,7.94,36.58,8.25z"/>
	</g>
	<g>
		<path class="st0" d="M38.1,6.75l0.33,0.58C43.02,4.91,44.6,3,44.6,3s0.48,0.6,0.43,0.9c-1.23,1.44-4.29,2.93-6.37,3.83l1.43,2.48
			c0,0,8.57-2.94,11.43-6.49C50.13,1.11,49.43,0,49.43,0S42.08,2.17,38.1,6.75z"/>
	</g>
	<g>
		<polygon class="st0" points="33.34,12.1 38.51,9.4 37.9,8.32 32.92,11.36 		"/>
	</g>
	<g>
		<path class="st0" d="M25.01,38.88c0.12,0,0.23-0.02,0.35-0.05l21.49-5.8l0.81-0.22c0.58-0.16,0.98-0.68,0.99-1.28
			c0.01-0.6-0.39-1.13-0.96-1.3l-22.3-6.51c-0.24-0.07-0.5-0.07-0.75,0l-22.3,6.51c-0.57,0.17-0.97,0.7-0.96,1.3
			c0.01,0.6,0.41,1.12,0.99,1.28l1.74,0.47l20.56,5.55C24.78,38.87,24.9,38.88,25.01,38.88z M42.37,31.48l-6.97,1.88l-8.03-2.27
			l7.06-1.92L42.37,31.48z M25.01,26.42l7.73,2.26l-7.09,1.93l-7.61-2.15L25.01,26.42z M7.66,31.48l8.73-2.55l7.55,2.14l-8.86,2.41
			L7.66,31.48z M25.65,31.55l8.02,2.27l-8.66,2.34l-8.18-2.21L25.65,31.55z"/>
	</g>
</g>
</svg>
