<!-- Generator: Adobe Illustrator 23.0.3, SVG Export Plug-In  -->
<svg version="1.1" xmlns="http://www.w3.org/2000/svg" xmlns:xlink="http://www.w3.org/1999/xlink" x="0px" y="0px" width="50.91px"
	 height="49.74px" viewBox="0 0 50.91 49.74" style="enable-background:new 0 0 50.91 49.74;" xml:space="preserve">
<style type="text/css">
	.st0{fill:#1A1A1A;}
</style>
<defs>
</defs>
<g>
	<g>
		<path class="st0" d="M37.48,6.75l2,3.46c0,0,8.57-2.94,11.43-6.49C49.51,1.11,48.82,0,48.82,0S41.47,2.17,37.48,6.75z M49.45,3.9
			c-1.94,2.27-8.44,4.67-8.44,4.67s-0.3,0.08-0.42-0.13C46.93,5.52,49.02,3,49.02,3S49.5,3.6,49.45,3.9z"/>
	</g>
	<g>
		<path class="st0" d="M16.77,21.25c0.11,0.2,0.33,0.31,0.56,0.27c0.08-0.01,8.11-1.29,20.16-3.25c0.24-0.04,0.43-0.24,0.46-0.48
			c0.31-2.82,0.14-5.09-0.68-7.2l-4.34,2.25c-0.13,0.07-0.25,0.13-0.39,0.09c-0.13-0.04-0.25-0.13-0.32-0.26c0,0,0-0.01-0.01-0.01
			l-0.61-1.13c-0.13-0.26-0.05-0.57,0.2-0.72l4.23-2.6c-2.4-3.64-6.01-4.36-6.17-4.39c-0.2-0.04-0.4,0.03-0.53,0.19L16.36,19.8
			c-0.14,0.17-0.17,0.42-0.06,0.61L16.77,21.25z"/>
	</g>
	<g>
		<polygon class="st0" points="32.72,12.1 37.9,9.4 37.29,8.32 32.31,11.36 		"/>
	</g>
	<g>
		<path class="st0" d="M0.19,34.74c-0.01,0.04-0.03,0.07-0.03,0.11l-0.14,5.63l0,0.13L0,41.62c-0.01,0.4,0.25,0.76,0.64,0.88
			l24.19,7.21c0.08,0.03,0.17,0.04,0.25,0.04c0.05,0,0.09-0.01,0.13-0.02c0.05,0.01,0.09,0.02,0.13,0.02c0.08,0,0.17-0.01,0.25-0.04
			L49.8,42.5c0.38-0.11,0.65-0.47,0.64-0.88l-0.17-6.78c0-0.16-0.06-0.3-0.14-0.44l-25.46,7.2L0.19,34.74z"/>
	</g>
	<g>
		<path class="st0" d="M25.01,38.39c0.12,0,0.23-0.02,0.35-0.05l21.48-5.8l0.81-0.22c0.58-0.16,0.98-0.68,0.99-1.28
			c0.01-0.6-0.39-1.13-0.96-1.3l-22.3-6.51c-0.24-0.07-0.5-0.07-0.75,0l-22.3,6.51c-0.58,0.17-0.97,0.7-0.96,1.3
			c0.01,0.6,0.41,1.12,0.99,1.28L4.1,32.8l20.56,5.55C24.78,38.38,24.9,38.39,25.01,38.39z M7.66,30.99l17.35-5.06l17.35,5.06
			l-4.31,1.16l-13.15-3.84l-13.53,3.68L7.66,30.99z"/>
	</g>
</g>
</svg>
