<!-- Generator: Adobe Illustrator 23.0.3, SVG Export Plug-In  -->
<svg version="1.1" xmlns="http://www.w3.org/2000/svg" xmlns:xlink="http://www.w3.org/1999/xlink" x="0px" y="0px" width="60.2px"
	 height="46.41px" viewBox="0 0 60.2 46.41" style="enable-background:new 0 0 60.2 46.41;" xml:space="preserve">
<style type="text/css">
	.st0{fill:#1A1A1A;}
</style>
<defs>
</defs>
<g>
	<g>
		<path class="st0" d="M6.86,19.05v7.65c0,0.31,0.4,0.55,0.9,0.55h12.45c0.5,0,0.9-0.25,0.9-0.55v-7.65c0-0.31-0.4-0.55-0.9-0.55
			H7.76C7.26,18.5,6.86,18.75,6.86,19.05z"/>
	</g>
	<g>
		<path class="st0" d="M22.12,19.05v7.65c0,0.31,0.4,0.55,0.9,0.55h12.45c0.5,0,0.9-0.25,0.9-0.55v-7.65c0-0.31-0.4-0.55-0.9-0.55
			H23.02C22.52,18.5,22.12,18.75,22.12,19.05z"/>
	</g>
	<g>
		<path class="st0" d="M24.72,46.41h12.46c0.5,0,0.9-0.25,0.9-0.55V38.2c0-0.3-0.4-0.55-0.9-0.55H24.72c-0.5,0-0.9,0.25-0.9,0.55
			v7.66C23.82,46.16,24.22,46.41,24.72,46.41z"/>
	</g>
	<g>
		<path class="st0" d="M22.87,45.86V38.2c0-0.3-0.4-0.55-0.9-0.55H9.51c-0.5,0-0.9,0.25-0.9,0.55v7.66c0,0.3,0.4,0.55,0.9,0.55
			h12.46C22.46,46.41,22.87,46.16,22.87,45.86z"/>
	</g>
	<g>
		<path class="st0" d="M14.25,36.25V28.6c0-0.3-0.4-0.55-0.9-0.55H0.9c-0.5,0-0.9,0.25-0.9,0.55v7.66c0,0.3,0.4,0.55,0.9,0.55h12.46
			C13.85,36.8,14.25,36.56,14.25,36.25z"/>
	</g>
	<g>
		<path class="st0" d="M16.1,36.8h12.45c0.49,0,0.9-0.25,0.9-0.55V28.6c0-0.3-0.4-0.55-0.9-0.55H16.1c-0.5,0-0.9,0.25-0.9,0.55v7.66
			C15.21,36.56,15.61,36.8,16.1,36.8z"/>
	</g>
	<g>
		<path class="st0" d="M44.56,36.25V28.6c0-0.3-0.4-0.55-0.9-0.55H31.21c-0.5,0-0.9,0.25-0.9,0.55v7.66c0,0.3,0.4,0.55,0.9,0.55
			h12.46C44.16,36.8,44.56,36.56,44.56,36.25z"/>
	</g>
	<g>
		<path class="st0" d="M55.16,8.37c-1.44-0.63-2.11-1.43-2.49-2.96C52.29,3.9,52.3,0.26,52.3,0.23L52.16,0l-0.13,0.22
			c0,0.04-0.09,3.68-0.47,5.19c-0.38,1.53-1.06,2.33-2.49,2.96c-1.49,0.65-4.83,0.75-4.86,0.75l-0.27,0.13l0.27,0.13
			c0.03,0,3.37,0.09,4.86,0.75c1.44,0.63,2.11,1.43,2.49,2.96c0.38,1.51,0.47,5.15,0.47,5.19l0.13,0.22h0.01l0.13-0.23
			c0-0.04-0.02-3.67,0.36-5.18c0.38-1.53,1.06-2.33,2.49-2.96c1.49-0.65,4.83-0.75,4.86-0.75l0.18-0.16l-0.18-0.11
			C59.99,9.12,56.65,9.02,55.16,8.37z"/>
	</g>
	<g>
		<path class="st0" d="M40.1,11.79l-0.08-0.05c-0.01,0-1.53-0.05-2.2-0.34c-0.65-0.28-0.96-0.65-1.13-1.34
			c-0.17-0.68-0.16-2.33-0.16-2.35l-0.06-0.1l-0.06,0.1c0,0.02-0.04,1.67-0.21,2.35c-0.17,0.69-0.48,1.05-1.13,1.34
			c-0.68,0.3-2.19,0.34-2.2,0.34l-0.12,0.06l0.12,0.06c0.02,0,1.53,0.04,2.2,0.34c0.65,0.29,0.96,0.65,1.13,1.34
			c0.17,0.68,0.21,2.33,0.21,2.35l0.06,0.1h0.01l0.06-0.1c0-0.02-0.01-1.67,0.16-2.35c0.17-0.69,0.48-1.05,1.13-1.34
			c0.68-0.3,2.19-0.34,2.2-0.34L40.1,11.79z"/>
	</g>
	<g>
		<path class="st0" d="M46,18.78c-0.83-0.37-1.23-0.83-1.45-1.72c-0.22-0.88-0.21-2.99-0.21-3.01l-0.09-0.13l-0.08,0.13
			c0,0.02-0.05,2.14-0.27,3.02c-0.22,0.89-0.61,1.35-1.45,1.72c-0.87,0.38-2.81,0.43-2.83,0.43l-0.15,0.08l0.15,0.08
			c0.02,0,1.96,0.06,2.83,0.43c0.84,0.37,1.23,0.83,1.45,1.72c0.22,0.88,0.27,3,0.27,3.02l0.08,0.13h0.01l0.08-0.13
			c0-0.02-0.01-2.14,0.21-3.01c0.22-0.89,0.62-1.35,1.45-1.72c0.87-0.38,2.81-0.43,2.83-0.43l0.1-0.09l-0.1-0.06
			C48.81,19.21,46.87,19.16,46,18.78z"/>
	</g>
</g>
</svg>
