<!-- Generator: Adobe Illustrator 23.0.3, SVG Export Plug-In  -->
<svg version="1.1" xmlns="http://www.w3.org/2000/svg" xmlns:xlink="http://www.w3.org/1999/xlink" x="0px" y="0px" width="39.13px"
	 height="39.13px" viewBox="0 0 39.13 39.13" style="enable-background:new 0 0 39.13 39.13;" xml:space="preserve">
<style type="text/css">
	.st0{fill:#1A1A1A;}
</style>
<defs>
</defs>
<g>
	<g>
		<path class="st0" d="M8.56,35.75c0.03-0.03,0.05-0.06,0.08-0.09l1.7-1.16l-4.6-1.08C6.61,34.28,7.55,35.06,8.56,35.75z"/>
	</g>
	<g>
		<path class="st0" d="M0,19.57c0,1.14,0.12,2.25,0.31,3.34C0.4,22.9,0.5,22.9,0.59,22.92l2.45,0.56l-3.01-4.62
			C0.03,19.09,0,19.33,0,19.57z"/>
	</g>
	<g>
		<path class="st0" d="M16.75,30.15l1.95-1.32L0.71,24.75c0.2,0.72,0.43,1.44,0.71,2.12L16.75,30.15z"/>
	</g>
	<g>
		<path class="st0" d="M29.38,4.64l3.78,0.85c-0.69-0.66-1.43-1.27-2.21-1.83L29.38,4.64z"/>
	</g>
	<g>
		<path class="st0" d="M23.88,36.58l-3.96,2.55c1.19-0.02,2.36-0.14,3.49-0.36L23.88,36.58z"/>
	</g>
	<g>
		<path class="st0" d="M25.13,29.46c0.09-0.06,0.19-0.09,0.29-0.11c-0.13-0.07-0.24-0.16-0.32-0.29L24,27.35l-13.82,9.39
			c0.67,0.37,1.37,0.69,2.09,0.98L25.13,29.46z"/>
	</g>
	<g>
		<path class="st0" d="M26.12,34.51c0.03,0.21-0.01,0.43-0.13,0.61l-0.68,3.16c0.74-0.22,1.46-0.5,2.16-0.81l3.11-14.41l-1.52-2.15
			L26.12,34.51z"/>
	</g>
	<g>
		<path class="st0" d="M24.4,34.15l0.54-2.49L14.4,38.43c0.83,0.23,1.68,0.4,2.55,0.52L24.4,34.15z"/>
	</g>
	<g>
		<path class="st0" d="M12.66,1.27l-3.14,15.4c0,0.03-0.02,0.04-0.03,0.07l1.49,2.26l3.74-18.38C14.02,0.8,13.33,1.02,12.66,1.27z"
			/>
	</g>
	<g>
		<path class="st0" d="M6.66,12.04c-0.02,0.09-0.06,0.17-0.1,0.24l1.58,2.4l2.56-12.54C9.92,2.53,9.18,2.97,8.48,3.45L6.66,12.04z"
			/>
	</g>
	<g>
		<path class="st0" d="M0.33,16.08l4.88,7.5c0.03-0.02,0.04-0.05,0.07-0.07l1.61-1.04c-0.13-0.07-0.25-0.16-0.33-0.3l-5.63-8.56
			C0.67,14.42,0.48,15.24,0.33,16.08z"/>
	</g>
	<g>
		<path class="st0" d="M16.24,1.94L19.46,0c-0.98,0.01-1.94,0.1-2.88,0.25L16.24,1.94z"/>
	</g>
	<g>
		<path class="st0" d="M1.7,11.61l6.32,9.61c0.09,0.14,0.12,0.29,0.13,0.45l1.75-1.13c0,0,0,0-0.01,0L2.72,9.65
			C2.35,10.28,2,10.93,1.7,11.61z"/>
	</g>
	<g>
		<path class="st0" d="M15.92,4.18c-0.05,0.03-0.1,0.02-0.14,0.04l-0.54,2.64l9.9-6.05c-0.86-0.26-1.75-0.44-2.66-0.58L15.92,4.18z"
			/>
	</g>
	<g>
		<path class="st0" d="M6.31,5.2c-0.94,0.87-1.8,1.83-2.56,2.88C3.79,8.12,3.84,8.15,3.87,8.2l1.36,2.08L6.31,5.2z"/>
	</g>
	<g>
		<path class="st0" d="M12.31,33.17l2.43-1.65l-12.4-2.65c0.44,0.81,0.94,1.57,1.49,2.3L12.31,33.17z"/>
	</g>
	<g>
		<path class="st0" d="M16.48,12.67c0.04,0.04,0.08,0.07,0.11,0.11l9.33,14.32l0.6-2.78c-0.01-0.01-0.02-0.01-0.03-0.02l-8.46-12.6
			L16.48,12.67z"/>
	</g>
	<g>
		<path class="st0" d="M14.77,9.2C14.77,9.2,14.76,9.2,14.77,9.2l-0.58,2.83l15.13-9.43c-0.66-0.38-1.34-0.74-2.05-1.04L14.77,9.2z"
			/>
	</g>
	<g>
		<path class="st0" d="M20.63,27.52l2.41-1.63l-1.28-1.96l-4.24,2.84l2.87,0.65C20.47,27.43,20.55,27.47,20.63,27.52z"/>
	</g>
	<g>
		<path class="st0" d="M33.44,27.11l-1.49-2.1l-2.47,11.42c0.78-0.46,1.52-0.96,2.23-1.52L33.44,27.11z"/>
	</g>
	<g>
		<path class="st0" d="M24.64,7.59l12.03,2.46c-0.45-0.81-0.97-1.58-1.53-2.31l-7.89-1.78L24.64,7.59z"/>
	</g>
	<g>
		<polygon class="st0" points="10.04,25.06 18.78,19.35 17.66,17.63 7.13,24.4 		"/>
	</g>
	<g>
		<path class="st0" d="M36.88,15.63l2.25,3.42c-0.03-1.03-0.13-2.03-0.31-3.01L36.88,15.63z"/>
	</g>
	<g>
		<path class="st0" d="M22.9,9.03l1.5,2.16l13.97,2.96c-0.21-0.72-0.44-1.43-0.73-2.11L22.9,9.03z"/>
	</g>
	<g>
		<polygon class="st0" points="20.8,22.45 19.74,20.82 12.42,25.6 15.16,26.22 		"/>
	</g>
	<g>
		<path class="st0" d="M29.37,14.04l-3.5-0.74l3.57,5.13l7.38,10.42c0.37-0.68,0.68-1.39,0.96-2.11L29.44,14.2
			C29.41,14.15,29.39,14.09,29.37,14.04z"/>
	</g>
	<g>
		<path class="st0" d="M35.83,30.48l-1.02-1.44l-0.83,3.75C34.65,32.07,35.27,31.31,35.83,30.48z"/>
	</g>
	<g>
		<path class="st0" d="M38.98,22.02l-4.54-6.91l-2.67-0.56l6.7,10.07C38.7,23.77,38.87,22.91,38.98,22.02z"/>
	</g>
	<g>
		<path class="st0" d="M19.53,10.77l7.51,11.18l0.64-2.97l-0.47-0.66c-0.01-0.02-0.01-0.04-0.02-0.06l-5.95-8.56L19.53,10.77z"/>
	</g>
	<g>
		<path class="st0" d="M15.05,13.56l-1.35,0.84l-0.86,4.23l3.85-2.48l-1.57-2.42C15.09,13.69,15.07,13.62,15.05,13.56z"/>
	</g>
</g>
</svg>
