<!-- Generator: Adobe Illustrator 23.0.3, SVG Export Plug-In  -->
<svg version="1.1" xmlns="http://www.w3.org/2000/svg" xmlns:xlink="http://www.w3.org/1999/xlink" x="0px" y="0px" width="50.87px"
	 height="41.94px" viewBox="0 0 50.87 41.94" style="enable-background:new 0 0 50.87 41.94;" xml:space="preserve">
<style type="text/css">
	.st0{fill:#1A1A1A;}
</style>
<defs>
</defs>
<g>
	<g>
		<path class="st0" d="M50.87,26.31H0v15.64h50.87V26.31z M48.6,29.27c0.26,0,0.47,0.21,0.47,0.47c0,0.26-0.21,0.47-0.47,0.47
			c-0.26,0-0.47-0.21-0.47-0.47C48.14,29.48,48.35,29.27,48.6,29.27z M4.47,35.14c-0.5,0-0.91-0.41-0.91-0.91
			c0-0.5,0.41-0.91,0.91-0.91c0.51,0,0.91,0.41,0.91,0.91C5.38,34.73,4.97,35.14,4.47,35.14z M6.71,30.26
			c0-0.58,0.47-1.04,1.04-1.04c0.57,0,1.04,0.47,1.04,1.04c0,0.57-0.47,1.04-1.04,1.04C7.18,31.3,6.71,30.84,6.71,30.26z
			 M8.19,38.19c-0.45,0-0.81-0.36-0.81-0.81c0-0.45,0.36-0.81,0.81-0.81c0.45,0,0.81,0.36,0.81,0.81C9,37.83,8.63,38.19,8.19,38.19z
			 M12.11,36.32c-0.67,0-1.21-0.54-1.21-1.21c0-0.66,0.54-1.2,1.21-1.2c0.66,0,1.2,0.54,1.2,1.2
			C13.31,35.78,12.78,36.32,12.11,36.32z M21.59,32.21c-0.45,0-0.81-0.36-0.81-0.81c0-0.45,0.36-0.81,0.81-0.81
			c0.45,0,0.81,0.36,0.81,0.81C22.4,31.85,22.03,32.21,21.59,32.21z M23.21,37.08c-0.26,0-0.47-0.21-0.47-0.47s0.21-0.47,0.47-0.47
			c0.26,0,0.47,0.21,0.47,0.47S23.47,37.08,23.21,37.08z M25.97,33.69c-0.5,0-0.91-0.41-0.91-0.91c0-0.5,0.41-0.91,0.91-0.91
			c0.51,0,0.91,0.41,0.91,0.91C26.89,33.28,26.48,33.69,25.97,33.69z M32.42,30.17c-0.31,0-0.55-0.25-0.55-0.55
			c0-0.31,0.25-0.55,0.55-0.55c0.31,0,0.55,0.25,0.55,0.55C32.98,29.92,32.73,30.17,32.42,30.17z M34.05,37.42
			c-0.31,0-0.55-0.25-0.55-0.55c0-0.31,0.25-0.55,0.55-0.55c0.3,0,0.55,0.25,0.55,0.55C34.6,37.17,34.35,37.42,34.05,37.42z
			 M36.35,33.85c-0.67,0-1.2-0.54-1.2-1.2c0-0.67,0.54-1.2,1.2-1.2s1.2,0.54,1.2,1.2C37.55,33.31,37.01,33.85,36.35,33.85z
			 M40.28,32.9c-0.31,0-0.55-0.25-0.55-0.55c0-0.31,0.25-0.55,0.55-0.55c0.31,0,0.55,0.25,0.55,0.55
			C40.83,32.65,40.58,32.9,40.28,32.9z M42.62,37.11c-0.5,0-0.92-0.41-0.92-0.91c0-0.5,0.41-0.91,0.92-0.91
			c0.5,0,0.91,0.41,0.91,0.91C43.53,36.7,43.12,37.11,42.62,37.11z M48.25,37.79c-0.5,0-0.91-0.41-0.91-0.91
			c0-0.5,0.41-0.91,0.91-0.91c0.51,0,0.91,0.41,0.91,0.91C49.16,37.38,48.76,37.79,48.25,37.79z"/>
	</g>
	<g>
		<path class="st0" d="M25.5,0.09V0c0,0.02-0.01,0.03-0.01,0.05c0-0.02-0.01-0.03-0.01-0.05v0.09c-1.21,4.62-4.39,7.79-5.76,11.67
			c-0.14,0.4-0.23,0.83-0.33,1.25c-0.08,0.33-0.13,0.66-0.19,1l10.14-6.11C27.92,5.51,26.29,3.11,25.5,0.09z"/>
	</g>
	<g>
		<path class="st0" d="M20,19.27c2.49,3.79,8.29,3.5,10.82,0.23c0.26-0.34,0.42-0.74,0.57-1.14c0.15-0.41,0.26-0.82,0.35-1.24
			c0.08-0.42,0.14-0.85,0.16-1.28c0.02-0.43,0.01-0.85-0.02-1.28c-0.04-0.42-0.11-0.84-0.2-1.26c-0.09-0.42-0.21-0.83-0.33-1.25
			c-0.03-0.1-0.05-0.2-0.09-0.3c-0.03-0.1-0.08-0.19-0.12-0.29l-11.54,6.95C19.7,18.72,19.83,19.01,20,19.27z"/>
	</g>
	<g>
		<polygon class="st0" points="35.93,6.25 35.42,5.4 12.8,19.02 13.31,19.88 13.83,20.73 36.45,7.11 		"/>
	</g>
</g>
</svg>
