<!-- Generator: Adobe Illustrator 23.0.3, SVG Export Plug-In  -->
<svg version="1.1" xmlns="http://www.w3.org/2000/svg" xmlns:xlink="http://www.w3.org/1999/xlink" x="0px" y="0px" width="36.83px"
	 height="38.13px" viewBox="0 0 36.83 38.13" style="enable-background:new 0 0 36.83 38.13;" xml:space="preserve">
<style type="text/css">
	.st0{fill:#1A1A1A;}
</style>
<defs>
</defs>
<g>
	<g>
		<path class="st0" d="M16.44,8.87c-1.93,1.63-4.97,3.62-4.97,3.62s-3.29,2.63-3.28,5.58c0,4.29,0.28,5.9,4.13,5.47
			c3.85-0.43,7.82-6.43,8.49-7.62c1.31-2.32,2.49-6.26,1.11-7.88C20.81,6.73,18.37,7.25,16.44,8.87z"/>
	</g>
	<g>
		<path class="st0" d="M0,0.79v13.3h3.66c0,0,1.49,0.26,3.15-1.4c1.66-1.66,4.5-3.44,2.8-5.51C7.68,4.81,3.48,1.66,3.48,1.66
			S2.17,0.97,0,0.79z"/>
	</g>
	<g>
		<path class="st0" d="M20.31,0H5.5c1.58,1.88,6.83,7.38,10.42,7c2.41-0.26,5.01-3,5.01-3S22.73,2.07,20.31,0z"/>
	</g>
	<g>
		<path class="st0" d="M28.22,7.3c1.49-0.52,2.03-1.39,2.7-2.78c0.36-0.75,0.87-2.49,1.22-4.53h-8.15c-0.1,0.85,0.08,0.67-0.22,2.4
			C23.08,6.32,24.63,8.09,28.22,7.3z"/>
	</g>
	<g>
		<path class="st0" d="M33.41,6c0,0-1.25,3.38,0.18,4.68c0.95,0.86,2.1,1.97,3.24,3.14V0h-1.67L33.41,6z"/>
	</g>
	<g>
		<path class="st0" d="M28.56,10.85c-1.62-0.53-4.28-1.36-4.83,2.63c-0.52,3.74-1.08,5.34,1.55,7.35c2.63,2.02,2.36,5.02,6.3,6.42
			c2.08,0.74,3.86,0.87,5.25,0.46V17.44C34.58,15.06,31.08,11.68,28.56,10.85z"/>
	</g>
	<g>
		<path class="st0" d="M6.37,26.52c-1.39,0.06-4.53,2.3-6.37,3.7v7.9h5.26c0.55-0.58,3.84-4.15,5.04-6.79
			C11.59,28.44,8.38,26.43,6.37,26.52z"/>
	</g>
	<g>
		<path class="st0" d="M19.5,34.04c-5.49-0.68-5.78-1.4-7.53,0.44c-1,1.05-1.4,2.54-1.56,3.64h15.95
			C26.26,35.82,25.3,34.76,19.5,34.04z"/>
	</g>
	<g>
		<path class="st0" d="M27.82,36.06c0.09,0.94,0.37,1.6,0.7,2.07h8.31v-7.2c-1.83-0.88-4.05-1.48-6-1.76
			C26.07,28.46,27.47,32.56,27.82,36.06z"/>
	</g>
	<g>
		<path class="st0" d="M13.82,28.94c-0.01,0.12-0.05,0.25-0.01,0.38c0.53,1.75,3.68,1.23,8.67,2.28c4.99,1.05,2.81-6.57,1.38-7.99
			c-2.64-2.39-3.57-1.73-6.64,0.9C14.44,26.9,13.9,27.69,13.82,28.94z"/>
	</g>
	<g>
		<path class="st0" d="M0,26.07c5.91-2.36,6.28-5.24,5.5-8.13c-0.61-2.24-3.66-1.8-5.5-1.31V26.07z"/>
	</g>
</g>
</svg>
