<!-- Generator: Adobe Illustrator 23.0.3, SVG Export Plug-In  -->
<svg version="1.1" xmlns="http://www.w3.org/2000/svg" xmlns:xlink="http://www.w3.org/1999/xlink" x="0px" y="0px" width="50.85px"
	 height="43.94px" viewBox="0 0 50.85 43.94" style="enable-background:new 0 0 50.85 43.94;" xml:space="preserve">
<style type="text/css">
	.st0{fill:#1A1A1A;}
</style>
<defs>
</defs>
<g>
	<g>
		<path class="st0" d="M36.21,7.36l2.18,3.78c0,0,9.35-3.21,12.46-7.07C49.33,1.21,48.57,0,48.57,0S40.56,2.36,36.21,7.36z"/>
	</g>
	<g>
		<path class="st0" d="M36.72,19.4c0.33-3.07,0.15-5.55-0.74-7.85L31.25,14c-0.14,0.08-0.27,0.14-0.42,0.1
			c-0.15-0.05-0.27-0.15-0.35-0.28c0,0,0-0.01-0.01-0.01l-0.67-1.23c-0.15-0.28-0.05-0.62,0.21-0.79l4.61-2.84
			c-2.61-3.97-6.55-4.75-6.73-4.79c-0.22-0.04-0.44,0.04-0.58,0.21l-8.44,10.28c0.85-0.38,1.82-0.6,2.79-0.6
			c1.64,0,2.86,0.6,3.17,1.57c0.35,1.08-0.4,2.28-2.22,3.58c-1.2,0.86-1.57,2.04-1.63,3.19c3.8-0.61,9.02-1.45,15.24-2.46
			C36.49,19.88,36.7,19.67,36.72,19.4z"/>
	</g>
	<g>
		<polygon class="st0" points="30.57,12.39 31.02,13.19 36.67,10.25 36,9.07 		"/>
	</g>
	<g>
		<path class="st0" d="M22.26,18.71c3.58-2.56,1.85-4.05-0.6-4.05c-1.21,0-2.59,0.37-3.6,1.15c0,0-2.28,1.13-3.37,3.93
			c-0.98,2.52-3.53,4.25-5.29,4.42c-1.68,0.16-4.1,0.09-5.86,0.53H1.94H1.5c-0.83,0-1.5,0.54-1.5,1.21v16.83
			c0,0.67,0.67,1.21,1.5,1.21h20.78c0.83,0,1.5-0.54,1.5-1.21V25.9c0-0.67-0.67-1.21-1.5-1.21h-1.14h-0.61
			C20.31,23.07,19.92,20.38,22.26,18.71z"/>
	</g>
</g>
</svg>
