<!-- Generator: Adobe Illustrator 23.0.3, SVG Export Plug-In  -->
<svg version="1.1" xmlns="http://www.w3.org/2000/svg" xmlns:xlink="http://www.w3.org/1999/xlink" x="0px" y="0px" width="52.06px"
	 height="52.77px" viewBox="0 0 52.06 52.77" style="enable-background:new 0 0 52.06 52.77;" xml:space="preserve">
<style type="text/css">
	.st0{fill:#1A1A1A;}
</style>
<defs>
</defs>
<g>
	<g>
		<path class="st0" d="M1.05,45.05l-0.19,0.06C0.34,45.26,0,45.73,0,46.26c0.01,0.53,0.36,0.99,0.88,1.13l19.78,5.34
			c0.1,0.03,0.21,0.04,0.31,0.04s0.21-0.01,0.31-0.04l19.78-5.34c0.51-0.14,0.87-0.6,0.88-1.13c0-0.53-0.34-1-0.85-1.15l-0.01,0
			l-20.1,5.49L1.05,45.05z"/>
	</g>
	<g>
		<path class="st0" d="M20.96,47.6c0.1,0,0.21-0.01,0.31-0.04l17.04-4.6l2.73-0.74c0.51-0.14,0.87-0.6,0.88-1.13
			c0-0.53-0.34-1-0.85-1.15l-0.25-0.07l-19.86,5.61L1.03,39.89l-0.17,0.05C0.34,40.09,0,40.56,0,41.09
			c0.01,0.53,0.36,0.99,0.88,1.13l3.64,0.98l16.13,4.35C20.76,47.59,20.86,47.6,20.96,47.6z"/>
	</g>
	<g>
		<path class="st0" d="M21.26,42.05c0.1,0,0.21-0.01,0.31-0.04l16.12-4.35l3.66-0.99c0.51-0.14,0.87-0.6,0.88-1.13
			c0-0.53-0.34-1-0.85-1.15l-19.78-5.77c-0.22-0.06-0.45-0.06-0.66,0L1.15,34.39c-0.51,0.15-0.86,0.62-0.85,1.15
			c0.01,0.53,0.36,0.99,0.88,1.13l4.6,1.24L20.95,42C21.05,42.03,21.16,42.05,21.26,42.05z"/>
	</g>
	<g>
		<path class="st0" d="M51.75,1.26c-0.05-0.11-0.22-0.3-0.22-0.3c-1.81-2.21-4.61-0.11-6.05,1.14c-1.56,1.35-4.47,3.04-4.47,3.04
			s-1.88,0.88-2.71-0.38c-0.83-1.26-1.41-2.3-2.23-1.96c-0.82,0.34-1.67,0.74-1.67,0.74l6.33,11.27c0,0,0.81-0.47,1.52-0.99
			c0.72-0.52,0.13-1.56-0.51-2.92c-0.64-1.36,1.09-2.51,1.09-2.51s2.96-1.6,4.92-2.23c1.82-0.58,5.07-1.87,4.13-4.57
			C51.89,1.6,51.82,1.36,51.75,1.26z"/>
	</g>
	<g>
		<polygon class="st0" points="38.15,11.39 36.02,7.6 33.91,3.84 25.38,9.51 30.78,19.49 40.23,15.11 		"/>
	</g>
	<g>
		<path class="st0" d="M30.85,19.74c0-0.01,0-0.01-0.01-0.02v0.04c-0.52,1.98-1.89,3.35-2.48,5.01c-0.06,0.17-0.1,0.36-0.14,0.54
			c-0.04,0.18-0.08,0.36-0.1,0.54c-0.02,0.18-0.04,0.37-0.04,0.55c0,0.18,0.02,0.37,0.04,0.55c0.03,0.18,0.07,0.37,0.13,0.54
			c0.06,0.18,0.13,0.35,0.23,0.5c1.07,1.63,3.57,1.5,4.65,0.1c0.11-0.15,0.18-0.32,0.25-0.49c0.06-0.18,0.11-0.35,0.15-0.54
			c0.03-0.18,0.06-0.36,0.07-0.55c0.01-0.18,0.01-0.37-0.01-0.55c-0.02-0.18-0.05-0.36-0.09-0.54c-0.04-0.18-0.09-0.36-0.14-0.54
			c-0.01-0.04-0.02-0.09-0.04-0.13c-0.59-1.66-1.95-3.03-2.48-5.01v-0.04C30.85,19.73,30.85,19.73,30.85,19.74z"/>
	</g>
</g>
</svg>
