<!-- Generator: Adobe Illustrator 23.0.3, SVG Export Plug-In  -->
<svg version="1.1" xmlns="http://www.w3.org/2000/svg" xmlns:xlink="http://www.w3.org/1999/xlink" x="0px" y="0px" width="25.96px"
	 height="33.72px" viewBox="0 0 25.96 33.72" style="enable-background:new 0 0 25.96 33.72;" xml:space="preserve">
<style type="text/css">
	.st0{fill:#1A1A1A;}
</style>
<defs>
</defs>
<g>
	<g>
		<path class="st0" d="M1.09,32.52c1.18,0.37,5.98,0.25,5.98,0.25h0.35h0.42h0.34c0,0,4.8,0.12,5.98-0.25
			c0.03-0.01,0.05-0.04,0.08-0.05c0.11,0.48,0.32,0.93,0.69,1.04c0.92,0.29,4.67,0.2,4.67,0.2h0.27h0.33h0.27
			c0,0,3.74,0.09,4.66-0.2c0.92-0.29,0.83-2.55,0.83-2.55s0.04-7.29-0.11-12c-0.03-1.11-0.4-2-0.9-2.73H15.2
			c-0.02,0.03-0.03,0.06-0.05,0.08c-0.02-0.85-0.04-1.68-0.06-2.45c-0.05-1.42-0.51-2.57-1.16-3.49H1.44
			c-0.65,0.92-1.13,2.07-1.21,3.49c-0.36,6.55-0.2,15.38-0.2,15.38S-0.08,32.15,1.09,32.52z M15.73,20.58h8.52v7.47h-8.52V20.58z
			 M2.11,15.94h10.92v9.58H2.11V15.94z"/>
	</g>
	<g>
		<rect x="3.23" class="st0" width="9.02" height="7.12"/>
	</g>
	<g>
		<path class="st0" d="M11.54,9.65V9.42V8.5V7.84H3.94V8.5v0.9c0,0.01-0.01,0.01-0.02,0.02h0.02v0.23H11.54z"/>
	</g>
	<g>
		<rect x="16.59" y="8.14" class="st0" width="7.04" height="5.55"/>
	</g>
	<g>
		<path class="st0" d="M23.08,15.67v-0.18v-0.72v-0.51h-5.92v0.51v0.71c-0.01,0-0.01,0.01-0.01,0.01h0.01v0.18H23.08z"/>
	</g>
</g>
</svg>
