<!-- Generator: Adobe Illustrator 23.0.3, SVG Export Plug-In  -->
<svg version="1.1" xmlns="http://www.w3.org/2000/svg" xmlns:xlink="http://www.w3.org/1999/xlink" x="0px" y="0px" width="58.76px"
	 height="35.17px" viewBox="0 0 58.76 35.17" style="enable-background:new 0 0 58.76 35.17;" xml:space="preserve">
<style type="text/css">
	.st0{fill:#1A1A1A;}
</style>
<defs>
</defs>
<g>
	<g>
		<path class="st0" d="M23.25,35.17c12.84,0,23.25-3.06,23.25-6.83c0-3.04-6.77-5.62-16.13-6.5c-0.18-0.02-0.36-0.03-0.54-0.05
			c-0.11-1.37,0.02-3.08,1.64-4.24c3.15-2.25,1.63-3.57-0.52-3.57c-1.06,0-2.28,0.32-3.16,1.01c0,0-2.01,0.99-2.97,3.46
			c-0.51,1.32-1.51,2.38-2.57,3.07c-0.39,0-0.78,0.01-1.16,0.02C9.26,21.87,0,24.79,0,28.34C0,32.11,10.41,35.17,23.25,35.17z
			 M38.8,29.2c0.22,0,0.39,0.18,0.39,0.4c0,0.22-0.18,0.39-0.4,0.39c-0.22,0-0.39-0.18-0.39-0.4C38.41,29.37,38.59,29.2,38.8,29.2z
			 M35.22,28.64c0.18,0,0.32,0.15,0.31,0.32c0,0.18-0.15,0.32-0.32,0.32c-0.18,0-0.32-0.15-0.31-0.32
			C34.9,28.78,35.04,28.64,35.22,28.64z M32.89,25.04c0.3,0,0.54,0.25,0.54,0.55c0,0.3-0.25,0.54-0.56,0.54
			c-0.3-0.01-0.54-0.25-0.54-0.56C32.34,25.27,32.58,25.03,32.89,25.04z M31.65,29.44c0.3,0,0.54,0.25,0.54,0.55
			c0,0.3-0.25,0.54-0.55,0.54c-0.3,0-0.54-0.25-0.54-0.55C31.1,29.67,31.35,29.43,31.65,29.44z M30.12,26.43
			c0.46,0.01,0.82,0.38,0.81,0.84c-0.01,0.45-0.38,0.82-0.84,0.81c-0.45,0-0.82-0.38-0.81-0.83C29.29,26.78,29.66,26.42,30.12,26.43
			z M27.97,29.96c0.3,0,0.54,0.25,0.54,0.55c0,0.3-0.25,0.54-0.55,0.54c-0.3-0.01-0.54-0.25-0.54-0.56
			C27.42,30.19,27.66,29.95,27.97,29.96z M23.01,27.8c0.22,0,0.39,0.18,0.39,0.4c0,0.22-0.18,0.39-0.4,0.39
			c-0.22,0-0.39-0.18-0.39-0.4C22.62,27.97,22.8,27.8,23.01,27.8z M19.86,31.32c-0.01,0.46-0.38,0.82-0.84,0.81
			c-0.46-0.01-0.82-0.38-0.81-0.83c0.01-0.46,0.38-0.82,0.84-0.81C19.5,30.49,19.87,30.86,19.86,31.32z M18.12,25.19
			c0.3,0.01,0.54,0.25,0.54,0.55c0,0.3-0.25,0.54-0.55,0.54c-0.3,0-0.54-0.25-0.54-0.56C17.57,25.43,17.82,25.19,18.12,25.19z
			 M16.78,26.98c0.49,0.01,0.88,0.41,0.87,0.9c-0.01,0.49-0.41,0.88-0.9,0.87c-0.49-0.01-0.88-0.41-0.87-0.9
			C15.88,27.36,16.29,26.97,16.78,26.98z M13.36,26.26c0.22,0,0.39,0.18,0.39,0.4c0,0.22-0.18,0.39-0.4,0.39
			c-0.22,0-0.39-0.18-0.39-0.4C12.96,26.43,13.14,26.26,13.36,26.26z M11.76,28.48c0.22,0,0.39,0.18,0.39,0.4
			c0,0.22-0.18,0.39-0.4,0.39c-0.22,0-0.39-0.18-0.39-0.4C11.36,28.65,11.54,28.47,11.76,28.48z M8.71,28.34
			c0.45,0.01,0.81,0.38,0.8,0.82c-0.01,0.45-0.38,0.81-0.82,0.8c-0.45-0.01-0.81-0.38-0.8-0.83C7.89,28.7,8.26,28.34,8.71,28.34z
			 M6.16,27.07c0.22,0,0.39,0.18,0.39,0.4c0,0.22-0.18,0.39-0.4,0.39c-0.22,0-0.39-0.18-0.39-0.4C5.77,27.23,5.94,27.06,6.16,27.07z
			"/>
	</g>
	<g>
		<path class="st0" d="M44.97,6.94l2.05,3.56c0,0,8.81-3.02,11.74-6.66C57.33,1.14,56.62,0,56.62,0S49.06,2.23,44.97,6.94z"/>
	</g>
	<g>
		<path class="st0" d="M34.25,14.72c0.33,1.02-0.38,2.15-2.09,3.38c-1.13,0.81-1.48,1.92-1.54,3c3.58-0.58,8.5-1.37,14.36-2.32
			c0.25-0.04,0.44-0.24,0.47-0.49c0.31-2.9,0.14-5.23-0.7-7.4l-4.46,2.31c-0.13,0.07-0.26,0.13-0.4,0.09
			c-0.14-0.04-0.26-0.14-0.33-0.26c0,0,0-0.01,0-0.01l-0.63-1.16c-0.14-0.26-0.05-0.59,0.2-0.74l4.35-2.67
			c-2.46-3.74-6.17-4.48-6.34-4.51c-0.2-0.04-0.41,0.04-0.55,0.2l-7.96,9.69c0.8-0.35,1.72-0.57,2.63-0.57
			C32.81,13.24,33.95,13.81,34.25,14.72z"/>
	</g>
	<g>
		<polygon class="st0" points="40.08,12.43 45.4,9.66 44.77,8.55 39.66,11.67 		"/>
	</g>
</g>
</svg>
