<!-- Generator: Adobe Illustrator 23.0.3, SVG Export Plug-In  -->
<svg version="1.1" xmlns="http://www.w3.org/2000/svg" xmlns:xlink="http://www.w3.org/1999/xlink" x="0px" y="0px" width="30.95px"
	 height="41.68px" viewBox="0 0 30.95 41.68" style="enable-background:new 0 0 30.95 41.68;" xml:space="preserve">
<style type="text/css">
	.st0{fill:#1A1A1A;}
</style>
<defs>
</defs>
<g>
	<g>
		<path class="st0" d="M30.95,23.73l0-16.94l-2.8,2.54l0,14.45c0.06,1.49-0.25,5.8-2.43,7.89c-3.44,3.3-6.89,5.72-9.83,6.94v3.01
			l0.05-0.02c4.48-1.54,8.85-5.15,11.72-7.91C31.18,30.32,30.96,23.94,30.95,23.73z"/>
	</g>
	<g>
		<path class="st0" d="M3.3,33.7c2.87,2.76,7.24,6.37,11.72,7.91l0.2,0.07v-3c-2.98-1.2-6.48-3.65-9.98-7
			c-2.61-2.51-2.43-7.84-2.43-7.95V9.09l-2.81-2.8l0,17.38C-0.01,23.94-0.23,30.32,3.3,33.7z"/>
	</g>
	<g>
		<path class="st0" d="M30.76,6.06L29.6,6.02c-0.09,0-9.36-0.42-13.51-4.91L15.06,0l-1.03,1.11C9.88,5.6,1.43,6.01,1.35,6.02
			L0.7,6.05l2.6,2.6c2.77-0.36,8.07-1.44,11.77-4.64C19,7.35,25,8.38,27.87,8.69L30.76,6.06z"/>
	</g>
	<g>
		<polygon class="st0" points="25.88,20.42 25.34,19.48 22.94,19.48 23.98,17.67 23.44,16.73 22.35,16.73 20.76,19.48 17.21,19.48 
			18.99,16.4 22.17,16.4 22.71,15.46 22.17,14.52 20.07,14.52 21.27,12.45 20.73,11.51 19.64,11.51 18.44,13.58 17.4,11.77 
			16.31,11.77 15.77,12.71 17.36,15.46 15.58,18.54 13.8,15.46 15.39,12.71 14.85,11.77 13.76,11.77 12.71,13.58 11.51,11.51 
			10.43,11.51 9.88,12.45 11.09,14.52 8.99,14.52 8.45,15.46 8.99,16.4 12.17,16.4 13.95,19.48 10.39,19.48 8.8,16.73 7.72,16.73 
			7.17,17.67 8.22,19.48 5.82,19.48 5.28,20.42 5.82,21.36 8.22,21.36 7.17,23.17 7.72,24.1 8.8,24.1 10.39,21.36 13.95,21.36 
			12.17,24.43 8.99,24.43 8.45,25.37 8.99,26.31 11.09,26.31 9.88,28.38 10.43,29.32 11.51,29.32 12.71,27.25 13.76,29.06 
			14.85,29.06 15.39,28.12 13.8,25.37 15.58,22.29 17.36,25.37 15.77,28.12 16.31,29.06 17.4,29.06 18.44,27.25 19.64,29.32 
			20.73,29.32 21.27,28.38 20.07,26.31 22.17,26.31 22.71,25.37 22.17,24.43 18.99,24.43 17.21,21.36 20.76,21.36 22.35,24.1 
			23.44,24.1 23.98,23.17 22.94,21.36 25.34,21.36 		"/>
	</g>
</g>
</svg>
