<!-- Generator: Adobe Illustrator 23.0.3, SVG Export Plug-In  -->
<svg version="1.1" xmlns="http://www.w3.org/2000/svg" xmlns:xlink="http://www.w3.org/1999/xlink" x="0px" y="0px" width="38.39px"
	 height="34.95px" viewBox="0 0 38.39 34.95" style="enable-background:new 0 0 38.39 34.95;" xml:space="preserve">
<style type="text/css">
	.st0{fill:#1A1A1A;}
</style>
<defs>
</defs>
<g>
	<g>
		<polygon class="st0" points="2.09,4.24 15.99,4.24 16.97,0 3.26,0.02 		"/>
	</g>
	<g>
		<path class="st0" d="M1.92,4.84C0.76,5.63,0,6.96,0,8.47v16.96c0,2.42,1.96,4.39,4.39,4.39h5.46c-0.03-2.45,2.47-5.59,4.09-7.6
			c1.23-1.53,2.86-3.54,4.63-4.98c-0.03-0.85-0.05-1.76-0.07-2.69c-0.05-2.29-0.1-4.66-0.3-6.16c-0.39-2.96-2-3.54-2.07-3.56
			l0.05-0.15H1.97L1.92,4.84z M2.06,12.29h13.31v3.13H2.06V12.29z M2.06,16.68h13.31v1.13H2.06V16.68z"/>
	</g>
	<g>
		<path class="st0" d="M18.94,8.28c0.21,1.55,0.26,3.94,0.31,6.25c0.02,0.72,0.03,1.45,0.05,2.15c0.87-0.61,1.76-1.05,2.64-1.21
			l-0.19-6.99c0-1.61-0.73-3.04-1.93-3.82L18,0l-0.25,0l-0.99,4.29C17.39,4.67,18.6,5.72,18.94,8.28z"/>
	</g>
	<g>
		<path class="st0" d="M23.68,15.68L23.68,15.68c-0.01,0-0.03,0-0.04,0c-0.01,0-0.03,0-0.04,0v0c-3.19,0.06-6.52,4.17-8.64,6.81
			c-1.95,2.43-5.22,6.52-3.71,9.03c0.56,0.93,1.99,1.72,3.92,2.3c2.32,0.7,5.35,1.11,8.44,1.12v0c0.01,0,0.03,0,0.04,0
			c0.01,0,0.02,0,0.04,0v0c5.66-0.02,11.13-1.37,12.36-3.42c1.5-2.51-1.76-6.6-3.72-9.03c-2.01-2.5-5.1-6.3-8.12-6.76
			C24.03,15.7,23.85,15.68,23.68,15.68z M22.11,30.32c-0.22,0-0.4-0.18-0.4-0.4c0-0.22,0.18-0.4,0.4-0.4c0.22,0,0.4,0.18,0.4,0.4
			C22.51,30.14,22.33,30.32,22.11,30.32z M33.89,28.83c0.09-0.03,0.18-0.04,0.28-0.04c0.57,0,1.03,0.46,1.03,1.03
			c0,0.57-0.46,1.03-1.03,1.03c-0.29,0-0.56-0.12-0.74-0.32c-0.18-0.18-0.29-0.43-0.29-0.71C33.14,29.34,33.46,28.95,33.89,28.83z
			 M31.94,26.53c0.11-0.08,0.25-0.14,0.4-0.14c0.37,0,0.67,0.3,0.67,0.68c0,0.37-0.3,0.67-0.67,0.67c-0.28,0-0.52-0.17-0.62-0.42
			c-0.03-0.08-0.05-0.16-0.05-0.25C31.66,26.84,31.78,26.66,31.94,26.53z M31.82,29.98c0,0.37-0.3,0.68-0.68,0.68
			c-0.28,0-0.52-0.17-0.62-0.42c-0.03-0.08-0.05-0.17-0.05-0.26c0-0.22,0.11-0.41,0.28-0.53c0.11-0.08,0.25-0.14,0.4-0.14
			C31.52,29.31,31.82,29.61,31.82,29.98z M30.38,24.33c0.25,0,0.46,0.21,0.46,0.46c0,0.25-0.21,0.46-0.46,0.46
			c-0.25,0-0.46-0.21-0.46-0.46C29.91,24.54,30.12,24.33,30.38,24.33z M29.24,22.06c0.25,0,0.46,0.21,0.46,0.46
			c0,0.25-0.21,0.46-0.46,0.46c-0.25,0-0.46-0.21-0.46-0.46C28.78,22.27,28.98,22.06,29.24,22.06z M28.92,26.94
			c0.3,0,0.54,0.24,0.54,0.54c0,0.3-0.24,0.54-0.54,0.54c-0.3,0-0.54-0.24-0.54-0.54C28.38,27.18,28.62,26.94,28.92,26.94z
			 M28.88,31.32c0.09-0.03,0.18-0.04,0.28-0.04c0.57,0,1.03,0.46,1.03,1.03c0,0.57-0.46,1.03-1.03,1.03c-0.29,0-0.56-0.13-0.74-0.32
			c-0.18-0.18-0.29-0.43-0.29-0.71C28.13,31.83,28.45,31.44,28.88,31.32z M26.91,29.83C26.91,29.83,26.91,29.83,26.91,29.83
			c0-0.1,0.04-0.19,0.08-0.28c0.1-0.16,0.26-0.27,0.47-0.27c0.31,0,0.55,0.25,0.55,0.55c0,0.31-0.25,0.55-0.55,0.55
			c-0.08,0-0.15-0.02-0.21-0.04C27.04,30.26,26.91,30.06,26.91,29.83L26.91,29.83z M26.08,24.8c0.25,0,0.46,0.21,0.46,0.46
			c0,0.25-0.21,0.46-0.46,0.46c-0.25,0-0.46-0.21-0.46-0.46C25.62,25,25.82,24.8,26.08,24.8z M25.8,31.37c0,0.37-0.3,0.68-0.67,0.68
			c-0.28,0-0.52-0.17-0.63-0.42c-0.03-0.08-0.05-0.16-0.05-0.25c0-0.22,0.12-0.41,0.28-0.53c0.11-0.08,0.25-0.14,0.4-0.14
			C25.5,30.69,25.8,30.99,25.8,31.37z M25.03,28.33c0,0.29-0.23,0.52-0.52,0.52c-0.29,0-0.52-0.24-0.52-0.52
			c0-0.29,0.24-0.52,0.52-0.52C24.8,27.8,25.03,28.04,25.03,28.33z"/>
	</g>
	<g>
		<path class="st0" d="M35.26,22.49c0,0.86,0.7,1.57,1.57,1.57c0.86,0,1.56-0.7,1.56-1.57c0-0.87-0.7-1.57-1.56-1.57
			C35.96,20.93,35.26,21.63,35.26,22.49z"/>
	</g>
	<g>
		<path class="st0" d="M35.54,19.64c0.71,0,1.29-0.58,1.29-1.29c0-0.71-0.58-1.29-1.29-1.29c-0.71,0-1.29,0.58-1.29,1.29
			C34.24,19.06,34.82,19.64,35.54,19.64z"/>
	</g>
	<g>
		<path class="st0" d="M30.47,16.78c0,0.59,0.48,1.07,1.08,1.07c0.59,0,1.07-0.48,1.07-1.07c0-0.6-0.48-1.08-1.07-1.08
			C30.95,15.71,30.47,16.19,30.47,16.78z"/>
	</g>
	<g>
		<path class="st0" d="M30.07,14.35c0.46,0,0.83-0.37,0.83-0.83c0-0.46-0.37-0.83-0.83-0.83c-0.46,0-0.83,0.37-0.83,0.83
			C29.24,13.98,29.61,14.35,30.07,14.35z"/>
	</g>
</g>
</svg>
