<!-- Generator: Adobe Illustrator 23.0.3, SVG Export Plug-In  -->
<svg version="1.1" xmlns="http://www.w3.org/2000/svg" xmlns:xlink="http://www.w3.org/1999/xlink" x="0px" y="0px"
	 width="126.11px" height="28.29px" viewBox="0 0 126.11 28.29" style="enable-background:new 0 0 126.11 28.29;"
	 xml:space="preserve">
<style type="text/css">
	.st0{fill:#FFFFFF;}
	.st1{fill:#FFFFFF;}
	.st2{clip-path:url(#SVGID_2_);fill:url(#SVGID_3_);}
	.st3{clip-path:url(#SVGID_5_);fill:url(#SVGID_6_);}
</style>
<defs>
</defs>
<g>
	<g>
		<path class="st0" d="M28.79,14.62c0-0.69,0.13-1.35,0.4-1.99c0.27-0.64,0.63-1.19,1.1-1.68c0.46-0.48,1.01-0.87,1.63-1.16
			c0.62-0.29,1.28-0.44,1.98-0.44c0.82,0,1.56,0.18,2.22,0.53c0.66,0.35,1.22,0.8,1.66,1.34l-1.05,0.82
			c-0.75-0.95-1.7-1.42-2.84-1.42c-0.53,0-1.02,0.11-1.47,0.33c-0.45,0.22-0.85,0.52-1.19,0.89c-0.34,0.37-0.6,0.8-0.79,1.28
			c-0.19,0.48-0.29,0.98-0.29,1.5c0,0.5,0.1,0.98,0.3,1.44c0.2,0.46,0.47,0.88,0.81,1.23c0.34,0.36,0.73,0.64,1.19,0.86
			c0.45,0.22,0.93,0.33,1.44,0.33c0.66,0,1.27-0.17,1.83-0.51c0.56-0.34,1-0.8,1.32-1.39l1.1,0.8c-0.47,0.72-1.08,1.29-1.82,1.72
			c-0.74,0.43-1.55,0.64-2.44,0.64c-0.69,0-1.35-0.14-1.97-0.42c-0.62-0.28-1.16-0.65-1.62-1.13c-0.46-0.47-0.83-1.02-1.1-1.65
			C28.93,15.95,28.79,15.3,28.79,14.62"/>
		<path class="st0" d="M41.14,13.33v6.25H39.8v-6.33c0-0.55,0.08-1.07,0.23-1.54c0.15-0.47,0.38-0.89,0.67-1.24
			c0.29-0.35,0.65-0.63,1.09-0.83c0.43-0.2,0.93-0.3,1.49-0.3c0.52,0,0.99,0.09,1.42,0.27c0.43,0.18,0.8,0.43,1.11,0.77
			c0.31,0.34,0.55,0.75,0.71,1.23c0.17,0.48,0.25,1.03,0.25,1.63v6.33h-1.34v-6.25c0-0.88-0.19-1.55-0.56-2.01
			c-0.37-0.46-0.91-0.69-1.6-0.69c-0.69,0-1.22,0.23-1.59,0.69C41.32,11.78,41.14,12.45,41.14,13.33"/>
		<path class="st0" d="M48.97,16.09V9.53h4.99v1.24H50.3v2.95h3.38v1.24H50.3v1.34c0,0.67,0.17,1.17,0.52,1.52
			c0.35,0.35,0.84,0.53,1.47,0.53h1.66v1.24h-1.45c-1.19,0-2.08-0.29-2.67-0.86C49.26,18.15,48.97,17.28,48.97,16.09"/>
		<path class="st0" d="M57.4,16.11v3.48h-1.31V9.53h1.31v4.16l3.79-4.16h1.83l-3.52,3.82c0.09-0.03,0.18-0.05,0.25-0.07
			c0.08-0.02,0.14-0.03,0.2-0.03c0.28,0,0.57,0.06,0.88,0.19c0.3,0.12,0.58,0.3,0.82,0.52c0.25,0.23,0.46,0.51,0.61,0.84
			c0.16,0.33,0.24,0.71,0.24,1.14v3.64h-1.34v-3.51c0-0.2-0.04-0.4-0.13-0.6c-0.09-0.2-0.21-0.38-0.38-0.55
			c-0.17-0.16-0.37-0.3-0.62-0.4c-0.25-0.1-0.53-0.16-0.85-0.16c-0.55,0-0.99,0.14-1.31,0.42C57.56,15.08,57.4,15.52,57.4,16.11"/>
		<polygon class="st0" points="70.47,10.77 67.91,10.77 67.91,19.59 66.57,19.59 66.57,10.77 63.97,10.77 63.97,9.53 70.47,9.53 		
			"/>
		<path class="st0" d="M73.43,12.86v6.72h-1.33V13.5c0-0.51,0.02-0.96,0.07-1.36c0.04-0.39,0.19-0.79,0.42-1.19
			c0.3-0.51,0.7-0.91,1.19-1.19c0.49-0.29,1.04-0.43,1.65-0.43c0.45,0,0.88,0.09,1.28,0.26c0.4,0.17,0.75,0.41,1.05,0.71
			c0.3,0.3,0.54,0.65,0.71,1.04c0.18,0.4,0.27,0.82,0.27,1.26c0,0.38-0.07,0.76-0.21,1.15c-0.14,0.38-0.33,0.73-0.57,1.04
			c-0.25,0.31-0.54,0.56-0.88,0.75c-0.34,0.19-0.71,0.29-1.13,0.29c-0.77,0-1.37-0.15-1.79-0.46l-0.23-1.6
			c0.18,0.24,0.42,0.43,0.72,0.57c0.3,0.15,0.61,0.22,0.92,0.22c0.25,0,0.49-0.05,0.71-0.16c0.22-0.11,0.41-0.25,0.57-0.43
			c0.17-0.18,0.29-0.39,0.38-0.62c0.09-0.24,0.14-0.5,0.14-0.77c0-0.28-0.05-0.54-0.16-0.78c-0.11-0.24-0.25-0.45-0.42-0.63
			c-0.18-0.18-0.39-0.32-0.63-0.42c-0.24-0.1-0.5-0.15-0.77-0.15c-0.65,0-1.15,0.22-1.47,0.66C73.59,11.69,73.43,12.23,73.43,12.86"
			/>
		<path class="st1" d="M80.01,14.66c0-1.42,0.5-2.62,1.49-3.6c0.99-0.98,2.18-1.47,3.56-1.47c0.98,0,1.88,0.26,2.69,0.78
			c0.72,0.46,1.29,1.06,1.7,1.8l-2.14,1.28c-0.17-0.42-0.47-0.77-0.88-1.04C86.01,12.14,85.55,12,85.05,12
			c-0.7,0-1.3,0.25-1.79,0.76c-0.5,0.5-0.75,1.14-0.75,1.9c0,0.76,0.23,1.38,0.7,1.89c0.46,0.5,1.08,0.76,1.84,0.76
			c0.47,0,0.88-0.1,1.22-0.31c0.34-0.21,0.64-0.5,0.89-0.88l2.15,1.19c-0.38,0.73-0.96,1.32-1.73,1.77
			c-0.77,0.45-1.62,0.67-2.54,0.67c-1.36,0-2.55-0.5-3.55-1.49C80.51,17.27,80.01,16.07,80.01,14.66"/>
		<polygon class="st1" points="95.15,12.06 95.15,19.59 92.69,19.59 92.69,12.06 90.59,12.06 90.59,9.76 97.25,9.76 97.25,12.06 		
			"/>
		<path class="st1" d="M98.6,19.59v-6.32c0-1.06,0.33-1.93,0.98-2.63c0.65-0.7,1.53-1.05,2.63-1.05c0.94,0,1.77,0.34,2.46,1.02
			c0.69,0.68,1.04,1.5,1.04,2.46c0,1.03-0.34,1.88-1.04,2.56c-0.69,0.68-1.6,1.02-2.71,1.02l-0.45-2.6
			c0.06,0.08,0.15,0.14,0.26,0.19c0.11,0.05,0.26,0.07,0.45,0.07c0.3,0,0.55-0.11,0.76-0.33c0.2-0.23,0.31-0.51,0.31-0.84
			c0-0.34-0.08-0.62-0.25-0.83c-0.19-0.24-0.48-0.37-0.87-0.37c-0.29,0-0.55,0.12-0.76,0.36c-0.22,0.24-0.33,0.56-0.33,0.97v6.33
			H98.6z"/>
		<path class="st1" d="M106.96,14.66c0-1.42,0.49-2.62,1.49-3.6c0.99-0.98,2.18-1.48,3.56-1.48c1.4,0,2.59,0.5,3.57,1.5
			c0.98,1,1.47,2.19,1.47,3.58c0,1.41-0.48,2.61-1.44,3.6c-0.96,0.99-2.16,1.49-3.59,1.49c-1.38,0-2.56-0.49-3.56-1.48
			C107.46,17.28,106.96,16.08,106.96,14.66 M109.47,14.65c0,0.73,0.24,1.36,0.74,1.88c0.49,0.52,1.09,0.78,1.8,0.78
			c0.71,0,1.31-0.26,1.79-0.77c0.49-0.51,0.73-1.14,0.73-1.89c0-0.74-0.24-1.36-0.73-1.88c-0.49-0.52-1.09-0.77-1.79-0.77
			c-0.71,0-1.31,0.26-1.8,0.76C109.72,13.28,109.47,13.9,109.47,14.65"/>
		<path class="st1" d="M118.63,9.76h2.43v5.93c0,1.1,0.44,1.65,1.31,1.65c0.43,0,0.75-0.14,0.98-0.43c0.23-0.28,0.34-0.69,0.34-1.23
			V9.76h2.42v9.82h-2.42v-0.63c-0.12,0.24-0.33,0.43-0.63,0.57c-0.3,0.15-0.64,0.22-1.02,0.22c-0.91,0-1.69-0.36-2.35-1.08
			c-0.71-0.78-1.06-1.82-1.06-3.11V9.76z M123.92,9.08h-3.05V7.84h3.05V9.08z"/>
		<polygon class="st1" points="5.48,18.08 5.46,10.23 12.25,6.3 19.05,10.21 19.05,10.23 21.27,11.52 21.27,5.19 12.23,0 0,7.1 
			0.03,21.24 12.29,28.29 21.27,23.08 21.27,16.81 12.28,21.99 		"/>
	</g>
	<g>
		<defs>
			<polygon id="SVGID_1_" points="6.87,11.12 6.88,17.4 11.24,17.4 11.24,13.33 13.54,13.33 13.54,17.4 17.76,17.4 17.74,11.12 
				17.74,11.1 12.3,7.98 			"/>
		</defs>
		<clipPath id="SVGID_2_">
			<use xlink:href="#SVGID_1_"  style="overflow:visible;"/>
		</clipPath>
		
			<linearGradient id="SVGID_3_" gradientUnits="userSpaceOnUse" x1="-56.0199" y1="251.6274" x2="-55.0199" y2="251.6274" gradientTransform="matrix(10.8848 0 0 -10.8848 616.6362 2751.603)">
			<stop  offset="0" style="stop-color:#FFFFFF"/>
			<stop  offset="0.9121" style="stop-color:#FFFFFF"/>
			<stop  offset="1" style="stop-color:#FFFFFF"/>
		</linearGradient>
		<rect x="6.87" y="7.98" class="st2" width="10.88" height="9.43"/>
	</g>
</g>
</svg>
